Publica-95.ufo
<glyph name="exclam" format="2">
  <advance width="280"/>
  <unicode hex="0021"/>
  <guideline x="40" y="0" angle="90.0" name="TRAC" identifier="FS5Zn7NDG4"/>
  <guideline x="240" y="0" angle="90.0" name="TRAC" identifier="kDGUUXBctU"/>
  <outline>
    <contour>
      <point x="50" y="0" type="line"/>
      <point x="230" y="0" type="line"/>
      <point x="230" y="160" type="line"/>
      <point x="50" y="160" type="line"/>
    </contour>
    <contour>
      <point x="214" y="213" type="line"/>
      <point x="228" y="542" type="line"/>
      <point x="230" y="675" type="line"/>
      <point x="52" y="675" type="line"/>
      <point x="52" y="542" type="line"/>
      <point x="67" y="213" type="line"/>
    </contour>
  </outline>
</glyph>
<glyph name="quotedbl" format="2">
  <advance width="462"/>
  <unicode hex="0022"/>
  <outline>
    <contour>
      <point x="399" y="398" type="line"/>
      <point x="412" y="675" type="line"/>
      <point x="256" y="675" type="line"/>
      <point x="267" y="398" type="line"/>
    </contour>
    <contour>
      <point x="193" y="398" type="line"/>
      <point x="206" y="675" type="line"/>
      <point x="50" y="675" type="line"/>
      <point x="61" y="398" type="line"/>
    </contour>
  </outline>
</glyph>
<glyph name="numbersign" format="2">
  <advance width="556"/>
  <unicode hex="0023"/>
  <outline>
    <contour>
      <point x="174" y="0" type="line"/>
      <point x="281" y="615" type="line"/>
      <point x="151" y="615" type="line"/>
      <point x="44" y="0" type="line"/>
    </contour>
    <contour>
      <point x="515" y="255" type="line"/>
      <point x="18" y="255" type="line"/>
      <point x="18" y="136" type="line"/>
      <point x="515" y="136" type="line"/>
    </contour>
    <contour>
      <point x="40" y="352" type="line"/>
      <point x="537" y="352" type="line"/>
      <point x="537" y="471" type="line"/>
      <point x="40" y="471" type="line"/>
    </contour>
    <contour>
      <point x="401" y="0" type="line"/>
      <point x="509" y="615" type="line"/>
      <point x="379" y="615" type="line"/>
      <point x="271" y="0" type="line"/>
    </contour>
  </outline>
</glyph>
<glyph name="dollar" format="2">
  <advance width="508"/>
  <unicode hex="0024"/>
  <outline>
    <contour identifier="CdgTjSZLiT">
      <point x="186" y="120" type="line"/>
      <point x="186" y="-70" type="line"/>
      <point x="356" y="-70" type="line"/>
      <point x="356" y="120" type="line"/>
    </contour>
    <contour identifier="pl1e12YaQm">
      <point x="356" y="520" type="line"/>
      <point x="356" y="664" type="line"/>
      <point x="186" y="664" type="line"/>
      <point x="186" y="520" type="line"/>
    </contour>
    <component base="s" xOffset="8" yOffset="71"/>
  </outline>
</glyph>
<glyph name="percent" format="2">
  <advance width="817"/>
  <unicode hex="0025"/>
  <outline>
    <contour>
      <point x="243" y="426" type="curve" smooth="yes"/>
      <point x="243" y="335"/>
      <point x="229" y="311"/>
      <point x="191" y="311" type="curve" smooth="yes"/>
      <point x="153" y="311"/>
      <point x="138" y="336"/>
      <point x="138" y="426" type="curve" smooth="yes"/>
      <point x="138" y="517"/>
      <point x="152" y="543"/>
      <point x="192" y="543" type="curve" smooth="yes"/>
      <point x="226" y="543"/>
      <point x="243" y="518"/>
    </contour>
    <contour>
      <point x="358" y="426" type="curve" smooth="yes"/>
      <point x="358" y="584"/>
      <point x="281" y="625"/>
      <point x="192" y="625" type="curve" smooth="yes"/>
      <point x="96" y="625"/>
      <point x="23" y="584"/>
      <point x="23" y="426" type="curve" smooth="yes"/>
      <point x="23" y="279"/>
      <point x="97" y="229"/>
      <point x="190" y="229" type="curve" smooth="yes"/>
      <point x="281" y="229"/>
      <point x="358" y="280"/>
    </contour>
    <contour>
      <point x="662" y="615" type="line"/>
      <point x="555" y="615" type="line"/>
      <point x="152" y="0" type="line"/>
      <point x="259" y="0" type="line"/>
    </contour>
    <contour>
      <point x="680" y="188" type="curve" smooth="yes"/>
      <point x="680" y="98"/>
      <point x="662" y="73"/>
      <point x="628" y="73" type="curve" smooth="yes"/>
      <point x="589" y="73"/>
      <point x="575" y="98"/>
      <point x="575" y="188" type="curve" smooth="yes"/>
      <point x="575" y="281"/>
      <point x="589" y="306"/>
      <point x="629" y="306" type="curve" smooth="yes"/>
      <point x="664" y="306"/>
      <point x="680" y="282"/>
    </contour>
    <contour>
      <point x="793" y="188" type="curve" smooth="yes"/>
      <point x="793" y="343"/>
      <point x="720" y="386"/>
      <point x="629" y="386" type="curve" smooth="yes"/>
      <point x="534" y="386"/>
      <point x="460" y="343"/>
      <point x="460" y="188" type="curve" smooth="yes"/>
      <point x="460" y="41"/>
      <point x="533" y="-10"/>
      <point x="627" y="-10" type="curve" smooth="yes"/>
      <point x="719" y="-10"/>
      <point x="793" y="41"/>
    </contour>
  </outline>
</glyph>
<glyph name="ampersand" format="2">
  <advance width="691"/>
  <unicode hex="0026"/>
  <outline>
    <contour>
      <point x="661" y="0" type="curve"/>
      <point x="661" y="124" type="line"/>
      <point x="647" y="120"/>
      <point x="635" y="119"/>
      <point x="612" y="119" type="curve" smooth="yes"/>
      <point x="566" y="119"/>
      <point x="543" y="130"/>
      <point x="498" y="174" type="curve"/>
      <point x="418" y="251"/>
      <point x="378" y="297"/>
      <point x="315" y="385" type="curve" smooth="yes"/>
      <point x="268" y="453"/>
      <point x="253" y="485"/>
      <point x="253" y="519" type="curve" smooth="yes"/>
      <point x="253" y="551"/>
      <point x="274" y="573"/>
      <point x="305" y="573" type="curve" smooth="yes"/>
      <point x="334" y="573"/>
      <point x="354" y="552"/>
      <point x="354" y="520" type="curve" smooth="yes"/>
      <point x="354" y="480"/>
      <point x="323" y="450"/>
      <point x="254" y="422" type="curve"/>
      <point x="318" y="323" type="line"/>
      <point x="443" y="379"/>
      <point x="496" y="441"/>
      <point x="496" y="530" type="curve" smooth="yes"/>
      <point x="496" y="626"/>
      <point x="425" y="685"/>
      <point x="307" y="685" type="curve" smooth="yes"/>
      <point x="191" y="685"/>
      <point x="119" y="620"/>
      <point x="119" y="514" type="curve" smooth="yes"/>
      <point x="119" y="461"/>
      <point x="131" y="433"/>
      <point x="200" y="323" type="curve" smooth="yes"/>
      <point x="272" y="212"/>
      <point x="332" y="136"/>
      <point x="392" y="80" type="curve" smooth="yes"/>
      <point x="464" y="13"/>
      <point x="514" y="-10"/>
      <point x="591" y="-10" type="curve" smooth="yes"/>
      <point x="614" y="-10"/>
      <point x="633" y="-7"/>
    </contour>
    <contour>
      <point x="498" y="366" type="line"/>
      <point x="498" y="222"/>
      <point x="405" y="115"/>
      <point x="281" y="115" type="curve" smooth="yes"/>
      <point x="227" y="115"/>
      <point x="190" y="146"/>
      <point x="190" y="190" type="curve" smooth="yes"/>
      <point x="190" y="241"/>
      <point x="224" y="275"/>
      <point x="307" y="308" type="curve"/>
      <point x="244" y="406" type="line"/>
      <point x="92" y="346"/>
      <point x="35" y="284"/>
      <point x="35" y="178" type="curve" smooth="yes"/>
      <point x="35" y="60"/>
      <point x="122" y="-10"/>
      <point x="269" y="-10" type="curve" smooth="yes"/>
      <point x="473" y="-10"/>
      <point x="633" y="155"/>
      <point x="633" y="366" type="curve"/>
    </contour>
  </outline>
</glyph>
<glyph name="quotesingle" format="2">
  <advance width="256"/>
  <unicode hex="0027"/>
  <outline>
    <contour>
      <point x="193" y="398" type="line"/>
      <point x="206" y="675" type="line"/>
      <point x="50" y="675" type="line"/>
      <point x="61" y="398" type="line"/>
    </contour>
  </outline>
</glyph>
<glyph name="parenleft" format="2">
  <advance width="403"/>
  <unicode hex="0028"/>
  <outline>
    <contour>
      <point x="379" y="-190" type="line"/>
      <point x="279" y="-41"/>
      <point x="235" y="91"/>
      <point x="235" y="248" type="curve" smooth="yes"/>
      <point x="235" y="411"/>
      <point x="282" y="553"/>
      <point x="375" y="675" type="curve"/>
      <point x="211" y="675" type="line"/>
      <point x="116" y="546"/>
      <point x="69" y="404"/>
      <point x="69" y="245" type="curve" smooth="yes"/>
      <point x="69" y="88"/>
      <point x="122" y="-72"/>
      <point x="214" y="-190" type="curve"/>
    </contour>
  </outline>
</glyph>
<glyph name="parenright" format="2">
  <advance width="403"/>
  <unicode hex="0029"/>
  <outline>
    <contour>
      <point x="24" y="-190" type="curve"/>
      <point x="189" y="-190" type="line"/>
      <point x="283" y="-68"/>
      <point x="334" y="93"/>
      <point x="334" y="245" type="curve" smooth="yes"/>
      <point x="334" y="409"/>
      <point x="284" y="550"/>
      <point x="192" y="675" type="curve"/>
      <point x="28" y="675" type="line"/>
      <point x="123" y="550"/>
      <point x="168" y="407"/>
      <point x="168" y="248" type="curve" smooth="yes"/>
      <point x="168" y="89"/>
      <point x="123" y="-43"/>
    </contour>
  </outline>
</glyph>
<glyph name="asterisk" format="2">
  <advance width="425"/>
  <unicode hex="002A"/>
  <outline>
    <contour>
      <point x="262" y="565" type="line"/>
      <point x="272" y="700" type="line"/>
      <point x="155" y="700" type="line"/>
      <point x="165" y="567" type="line"/>
      <point x="182" y="583" type="line"/>
      <point x="63" y="638" type="line"/>
      <point x="24" y="529" type="line"/>
      <point x="150" y="496" type="line"/>
      <point x="144" y="520" type="line"/>
      <point x="48" y="420" type="line"/>
      <point x="149" y="346" type="line"/>
      <point x="227" y="461" type="line"/>
      <point x="199" y="461" type="line"/>
      <point x="277" y="346" type="line"/>
      <point x="376" y="419" type="line"/>
      <point x="282" y="520" type="line"/>
      <point x="274" y="498" type="line"/>
      <point x="401" y="526" type="line"/>
      <point x="360" y="637" type="line"/>
      <point x="246" y="581" type="line"/>
    </contour>
  </outline>
</glyph>
<glyph name="plus" format="2">
  <advance width="534"/>
  <unicode hex="002B"/>
  <guideline x="26" y="0" angle="90.0" name="TRAC" identifier="DczvyE76ye"/>
  <guideline x="508" y="0" angle="90.0" name="TRAC" identifier="j3KTtL3nfE"/>
  <outline>
    <contour>
      <point x="36" y="233" type="line"/>
      <point x="498" y="233" type="line"/>
      <point x="498" y="352" type="line"/>
      <point x="36" y="352" type="line"/>
    </contour>
    <contour>
      <point x="327" y="58" type="line"/>
      <point x="327" y="528" type="line"/>
      <point x="206" y="528" type="line"/>
      <point x="206" y="58" type="line"/>
    </contour>
  </outline>
</glyph>
<glyph name="comma" format="2">
  <advance width="295"/>
  <unicode hex="002C"/>
  <outline>
    <contour>
      <point x="245" y="160" type="line"/>
      <point x="50" y="160" type="line"/>
      <point x="50" y="0" type="line"/>
      <point x="170" y="0" type="line"/>
      <point x="124" y="71" type="line"/>
      <point x="113" y="25"/>
      <point x="79" y="-52"/>
      <point x="33" y="-136" type="curve"/>
      <point x="33" y="-140" type="line"/>
      <point x="169" y="-140" type="line"/>
      <point x="229" y="-43"/>
      <point x="245" y="2"/>
      <point x="245" y="71" type="curve" smooth="yes"/>
    </contour>
  </outline>
</glyph>
<glyph name="hyphen" format="2">
  <advance width="470"/>
  <unicode hex="002D"/>
  <outline>
    <contour>
      <point x="50" y="167" type="line"/>
      <point x="420" y="167" type="line"/>
      <point x="420" y="317" type="line"/>
      <point x="50" y="317" type="line"/>
    </contour>
  </outline>
</glyph>
<glyph name="period" format="2">
  <advance width="280"/>
  <unicode hex="002E"/>
  <guideline x="40" y="0" angle="90.0" name="TRAC" identifier="N7lLz0GDcJ"/>
  <guideline x="240" y="0" angle="90.0" name="TRAC" identifier="3inaaekCYD"/>
  <outline>
    <contour>
      <point x="50" y="0" type="line"/>
      <point x="230" y="0" type="line"/>
      <point x="230" y="160" type="line"/>
      <point x="50" y="160" type="line"/>
    </contour>
  </outline>
</glyph>
<glyph name="slash" format="2">
  <advance width="495"/>
  <unicode hex="002F"/>
  <outline>
    <contour>
      <point x="35" y="-190" type="line"/>
      <point x="178" y="-190" type="line"/>
      <point x="459" y="675" type="line"/>
      <point x="316" y="675" type="line"/>
    </contour>
  </outline>
</glyph>
<glyph name="colon" format="2">
  <advance width="280"/>
  <unicode hex="003A"/>
  <outline>
    <contour>
      <point x="50" y="0" type="line"/>
      <point x="230" y="0" type="line"/>
      <point x="230" y="160" type="line"/>
      <point x="50" y="160" type="line"/>
    </contour>
    <contour>
      <point x="50" y="315" type="line"/>
      <point x="230" y="315" type="line"/>
      <point x="230" y="475" type="line"/>
      <point x="50" y="475" type="line"/>
    </contour>
  </outline>
</glyph>
<glyph name="semicolon" format="2">
  <advance width="295"/>
  <unicode hex="003B"/>
  <guideline x="40" y="0" angle="90.0" name="TRAC" identifier="sc1dNiYcZ4"/>
  <guideline x="255" y="0" angle="90.0" name="TRAC" identifier="ZbGszjI8s8"/>
  <outline>
    <contour>
      <point x="65" y="315" type="line"/>
      <point x="245" y="315" type="line"/>
      <point x="245" y="475" type="line"/>
      <point x="65" y="475" type="line"/>
    </contour>
    <contour>
      <point x="245" y="160" type="line"/>
      <point x="50" y="160" type="line"/>
      <point x="50" y="0" type="line"/>
      <point x="170" y="0" type="line"/>
      <point x="124" y="71" type="line"/>
      <point x="106" y="-4"/>
      <point x="50" y="-105"/>
      <point x="33" y="-136" type="curve"/>
      <point x="33" y="-140" type="line"/>
      <point x="169" y="-140" type="line"/>
      <point x="206" y="-80"/>
      <point x="245" y="-24"/>
      <point x="245" y="71" type="curve" smooth="yes"/>
    </contour>
  </outline>
</glyph>
<glyph name="equal" format="2">
  <advance width="534"/>
  <unicode hex="003D"/>
  <guideline x="26" y="0" angle="90.0" name="TRAC"/>
  <guideline x="508" y="0" angle="90.0" name="TRAC"/>
  <outline>
    <contour>
      <point x="36" y="118" type="line"/>
      <point x="498" y="118" type="line"/>
      <point x="498" y="237" type="line"/>
      <point x="36" y="237" type="line"/>
    </contour>
    <contour>
      <point x="36" y="351" type="line"/>
      <point x="498" y="351" type="line"/>
      <point x="498" y="472" type="line"/>
      <point x="36" y="472" type="line"/>
    </contour>
  </outline>
</glyph>
<glyph name="greater" format="2">
  <advance width="534"/>
  <unicode hex="003E"/>
  <outline>
    <contour>
      <point x="37" y="48" type="line"/>
      <point x="499" y="214" type="line"/>
      <point x="499" y="388" type="line"/>
      <point x="37" y="555" type="line"/>
      <point x="37" y="432" type="line"/>
      <point x="397" y="300" type="line"/>
      <point x="37" y="169" type="line"/>
    </contour>
  </outline>
</glyph>
<glyph name="question" format="2">
  <advance width="519"/>
  <unicode hex="003F"/>
  <guideline x="10" y="0" angle="90.0" name="TRAC" identifier="qGSmPCCbyW"/>
  <guideline x="489" y="0" angle="90.0" name="TRAC" identifier="5qEllbjs0a"/>
  <outline>
    <contour>
      <point x="150" y="0" type="line"/>
      <point x="330" y="0" type="line"/>
      <point x="330" y="160" type="line" identifier="7pt9P6ZHjo"/>
      <point x="150" y="160" type="line" identifier="oPxNm2Xaxm"/>
    </contour>
    <contour>
      <point x="479" y="521" type="curve" smooth="yes"/>
      <point x="479" y="635"/>
      <point x="390" y="709"/>
      <point x="253" y="709" type="curve" smooth="yes"/>
      <point x="114" y="709"/>
      <point x="20" y="622"/>
      <point x="20" y="495" type="curve"/>
      <point x="167" y="495" type="line"/>
      <point x="167" y="542"/>
      <point x="196" y="570"/>
      <point x="245" y="570" type="curve" smooth="yes"/>
      <point x="288" y="570"/>
      <point x="315" y="544"/>
      <point x="315" y="504" type="curve" smooth="yes"/>
      <point x="315" y="467"/>
      <point x="301" y="442"/>
      <point x="247" y="387" type="curve" smooth="yes"/>
      <point x="182" y="316"/>
      <point x="164" y="277"/>
      <point x="165" y="213" type="curve" identifier="dtpPzSuMZR"/>
      <point x="314" y="213" type="line" identifier="ThEL9fW3Cd"/>
      <point x="314" y="250"/>
      <point x="328" y="274"/>
      <point x="382" y="332" type="curve" smooth="yes"/>
      <point x="457" y="413"/>
      <point x="479" y="456"/>
    </contour>
  </outline>
</glyph>
<glyph name="at" format="2">
  <advance width="903"/>
  <unicode hex="0040"/>
  <outline>
    <contour>
      <point x="869" y="309" type="curve" smooth="yes"/>
      <point x="869" y="521"/>
      <point x="717" y="652"/>
      <point x="472" y="652" type="curve" smooth="yes"/>
      <point x="211" y="652"/>
      <point x="37" y="483"/>
      <point x="37" y="228" type="curve" smooth="yes"/>
      <point x="37" y="-18"/>
      <point x="201" y="-169"/>
      <point x="468" y="-169" type="curve" smooth="yes"/>
      <point x="552" y="-169"/>
      <point x="656" y="-142"/>
      <point x="722" y="-103" type="curve"/>
      <point x="685" y="-11" type="line"/>
      <point x="615" y="-43"/>
      <point x="535" y="-62"/>
      <point x="467" y="-62" type="curve" smooth="yes"/>
      <point x="271" y="-62"/>
      <point x="157" y="46"/>
      <point x="157" y="231" type="curve" smooth="yes"/>
      <point x="157" y="422"/>
      <point x="280" y="545"/>
      <point x="470" y="545" type="curve" smooth="yes"/>
      <point x="647" y="545"/>
      <point x="755" y="454"/>
      <point x="755" y="304" type="curve" smooth="yes"/>
      <point x="755" y="208"/>
      <point x="710" y="140"/>
      <point x="647" y="140" type="curve" smooth="yes"/>
      <point x="605" y="140"/>
      <point x="599" y="163"/>
      <point x="614" y="253" type="curve" smooth="yes"/>
      <point x="631" y="354"/>
      <point x="647" y="437"/>
      <point x="647" y="437" type="curve"/>
      <point x="540" y="437" type="line"/>
      <point x="521" y="345" type="line"/>
      <point x="556" y="386" type="line"/>
      <point x="537" y="425"/>
      <point x="500" y="446"/>
      <point x="452" y="446" type="curve" smooth="yes"/>
      <point x="333" y="446"/>
      <point x="252" y="346"/>
      <point x="252" y="199" type="curve" smooth="yes"/>
      <point x="252" y="104"/>
      <point x="309" y="41"/>
      <point x="394" y="41" type="curve" smooth="yes"/>
      <point x="463" y="41"/>
      <point x="506" y="74"/>
      <point x="530" y="145" type="curve"/>
      <point x="495" y="145" type="line"/>
      <point x="497" y="68"/>
      <point x="543" y="32"/>
      <point x="637" y="32" type="curve" smooth="yes"/>
      <point x="773" y="32"/>
      <point x="869" y="147"/>
    </contour>
    <contour>
      <point x="498" y="357"/>
      <point x="514" y="335"/>
      <point x="514" y="287" type="curve" smooth="yes"/>
      <point x="514" y="202"/>
      <point x="478" y="140"/>
      <point x="428" y="140" type="curve" smooth="yes"/>
      <point x="393" y="140"/>
      <point x="375" y="165"/>
      <point x="375" y="212" type="curve" smooth="yes"/>
      <point x="375" y="294"/>
      <point x="414" y="357"/>
      <point x="464" y="357" type="curve" smooth="yes"/>
    </contour>
  </outline>
</glyph>
<glyph name="A" format="2">
  <advance width="648"/>
  <unicode hex="0041"/>
  <anchor x="321.0" y="655.0" name="top"/>
  <anchor x="507.0" y="-3.0" name="bottom"/>
  <outline>
    <contour>
      <point x="153" y="146" type="line"/>
      <point x="186" y="265" type="line"/>
      <point x="458" y="265" type="line"/>
      <point x="490" y="146" type="line"/>
    </contour>
    <contour>
      <point x="197" y="0" type="line"/>
      <point x="20" y="0" type="line"/>
      <point x="188" y="615" type="line"/>
      <point x="453" y="615" type="line"/>
      <point x="628" y="0" type="line"/>
      <point x="447" y="0" type="line"/>
      <point x="303" y="574" type="line"/>
      <point x="338" y="574" type="line"/>
    </contour>
  </outline>
</glyph>
<glyph name="B" format="2">
  <advance width="596"/>
  <unicode hex="0042"/>
  <guideline x="55" y="0" angle="90.0" name="TRAC" identifier="ZX1wMZ918b"/>
  <guideline x="571" y="0" angle="90.0" name="TRAC" identifier="YExIrfTCBn"/>
  <anchor x="272" y="655" name="top"/>
  <outline>
    <contour>
      <point x="65" y="0" type="line"/>
      <point x="332" y="0" type="line" smooth="yes"/>
      <point x="485" y="0"/>
      <point x="561" y="60"/>
      <point x="561" y="181" type="curve" smooth="yes"/>
      <point x="561" y="265"/>
      <point x="505" y="323"/>
      <point x="420" y="328" type="curve"/>
      <point x="420" y="319" type="line"/>
      <point x="491" y="331"/>
      <point x="531" y="383"/>
      <point x="531" y="461" type="curve" smooth="yes"/>
      <point x="531" y="561"/>
      <point x="459" y="615"/>
      <point x="323" y="615" type="curve" smooth="yes"/>
      <point x="65" y="615" type="line"/>
    </contour>
    <contour>
      <point x="386" y="190" type="curve" smooth="yes"/>
      <point x="386" y="142"/>
      <point x="360" y="122"/>
      <point x="298" y="122" type="curve" smooth="yes"/>
      <point x="170" y="122" type="line"/>
      <point x="235" y="52" type="line"/>
      <point x="235" y="565" type="line"/>
      <point x="176" y="500" type="line"/>
      <point x="294" y="500" type="line" smooth="yes"/>
      <point x="347" y="500"/>
      <point x="372" y="479"/>
      <point x="372" y="435" type="curve" smooth="yes"/>
      <point x="372" y="388"/>
      <point x="349" y="367"/>
      <point x="298" y="367" type="curve" smooth="yes"/>
      <point x="157" y="367" type="line"/>
      <point x="157" y="259" type="line"/>
      <point x="295" y="259" type="line" smooth="yes"/>
      <point x="359" y="259"/>
      <point x="386" y="238"/>
    </contour>
  </outline>
</glyph>
<glyph name="C" format="2">
  <advance width="660"/>
  <unicode hex="0043"/>
  <guideline x="35" y="0" angle="90.0" name="TRAC" identifier="6byrRZqHtw"/>
  <guideline x="630" y="0" angle="90.0" name="TRAC" identifier="8lRPPmEKrN"/>
  <anchor x="347.0" y="655.0" name="top"/>
  <anchor x="340.0" y="0.0" name="cedilla"/>
  <outline>
    <contour>
      <point x="339" y="-10" type="curve" smooth="yes"/>
      <point x="512" y="-10"/>
      <point x="620" y="79"/>
      <point x="620" y="223" type="curve"/>
      <point x="456" y="225" type="line"/>
      <point x="456" y="160"/>
      <point x="417" y="125"/>
      <point x="345" y="125" type="curve" smooth="yes"/>
      <point x="260" y="125"/>
      <point x="218" y="187"/>
      <point x="218" y="310" type="curve" smooth="yes" identifier="GPOXV7lLvl"/>
      <point x="218" y="432"/>
      <point x="261" y="493"/>
      <point x="347" y="493" type="curve" smooth="yes"/>
      <point x="411" y="493"/>
      <point x="451" y="456"/>
      <point x="451" y="399" type="curve"/>
      <point x="618" y="399" type="line"/>
      <point x="618" y="540"/>
      <point x="516" y="625"/>
      <point x="347" y="625" type="curve" smooth="yes"/>
      <point x="146" y="625"/>
      <point x="45" y="518"/>
      <point x="45" y="307" type="curve" smooth="yes" identifier="YJe0AcbG8P"/>
      <point x="45" y="100"/>
      <point x="147" y="-10"/>
    </contour>
  </outline>
</glyph>
<glyph name="D" format="2">
  <advance width="679"/>
  <unicode hex="0044"/>
  <guideline x="55" y="0" angle="90.0" name="TRAC" identifier="nDZHe2jieC"/>
  <guideline x="644" y="0" angle="90.0" name="TRAC" identifier="ZrpnDizd8Q"/>
  <anchor x="292" y="655" name="top"/>
  <anchor x="278" y="-3" name="bottom"/>
  <outline>
    <contour>
      <point x="634" y="315" type="curve" smooth="yes" identifier="gzHENYBt9W"/>
      <point x="634" y="510"/>
      <point x="513" y="615"/>
      <point x="289" y="615" type="curve" smooth="yes"/>
      <point x="65" y="615" type="line"/>
      <point x="65" y="0" type="line"/>
      <point x="295" y="0" type="line" smooth="yes"/>
      <point x="521" y="0"/>
      <point x="634" y="105"/>
    </contour>
    <contour>
      <point x="462" y="314" type="curve" smooth="yes" identifier="ICCBUSxate"/>
      <point x="462" y="191"/>
      <point x="409" y="128"/>
      <point x="307" y="128" type="curve" smooth="yes"/>
      <point x="166" y="128" type="line"/>
      <point x="235" y="68" type="line"/>
      <point x="235" y="546" type="line"/>
      <point x="167" y="487" type="line"/>
      <point x="304" y="487" type="line" smooth="yes"/>
      <point x="401" y="487"/>
      <point x="462" y="420"/>
    </contour>
  </outline>
</glyph>
<glyph name="E" format="2">
  <advance width="540"/>
  <unicode hex="0045"/>
  <guideline x="55" y="0" angle="90.0" name="TRAC" identifier="RC15p1x2E8"/>
  <guideline x="500" y="0" angle="90.0" name="TRAC" identifier="4AKw8iAkII"/>
  <anchor x="274" y="655" name="top"/>
  <anchor x="429" y="-3" name="bottom"/>
  <outline>
    <contour>
      <point x="235" y="551" type="line"/>
      <point x="156" y="490" type="line"/>
      <point x="485" y="490" type="line"/>
      <point x="485" y="615" type="line"/>
      <point x="65" y="615" type="line"/>
      <point x="65" y="0" type="line"/>
      <point x="490" y="0" type="line"/>
      <point x="490" y="124" type="line"/>
      <point x="154" y="124" type="line"/>
      <point x="235" y="60" type="line"/>
    </contour>
    <contour>
      <point x="168" y="251" type="line"/>
      <point x="468" y="251" type="line"/>
      <point x="468" y="369" type="line"/>
      <point x="168" y="369" type="line"/>
    </contour>
  </outline>
</glyph>
<glyph name="F" format="2">
  <advance width="530"/>
  <unicode hex="0046"/>
  <anchor x="277" y="655" name="top"/>
  <outline>
    <contour>
      <point x="169" y="490" type="line"/>
      <point x="485" y="490" type="line"/>
      <point x="485" y="615" type="line"/>
      <point x="65" y="615" type="line"/>
      <point x="65" y="0" type="line"/>
      <point x="235" y="0" type="line"/>
      <point x="235" y="554" type="line"/>
    </contour>
    <contour>
      <point x="147" y="369" type="line"/>
      <point x="147" y="251" type="line"/>
      <point x="468" y="251" type="line"/>
      <point x="468" y="369" type="line"/>
    </contour>
  </outline>
</glyph>
<glyph name="G" format="2">
  <advance width="717"/>
  <unicode hex="0047"/>
  <anchor x="333" y="655" name="top"/>
  <anchor x="337" y="-3" name="bottom"/>
  <outline>
    <contour>
      <point x="521" y="121" type="line"/>
      <point x="525" y="0" type="line"/>
      <point x="657" y="0" type="line"/>
      <point x="657" y="337" type="line"/>
      <point x="380" y="337" type="line"/>
      <point x="380" y="228" type="line"/>
      <point x="569" y="228" type="line"/>
      <point x="486" y="285" type="line"/>
      <point x="486" y="228" type="line" smooth="yes"/>
      <point x="486" y="163"/>
      <point x="434" y="121"/>
      <point x="358" y="121" type="curve" smooth="yes"/>
      <point x="263" y="121"/>
      <point x="218" y="179"/>
      <point x="218" y="317" type="curve" smooth="yes"/>
      <point x="218" y="434"/>
      <point x="265" y="493"/>
      <point x="358" y="493" type="curve" smooth="yes"/>
      <point x="433" y="493"/>
      <point x="479" y="461"/>
      <point x="479" y="409" type="curve"/>
      <point x="649" y="409" type="line"/>
      <point x="649" y="541"/>
      <point x="546" y="625"/>
      <point x="357" y="625" type="curve" smooth="yes"/>
      <point x="155" y="625"/>
      <point x="45" y="513"/>
      <point x="45" y="308" type="curve" smooth="yes"/>
      <point x="45" y="102"/>
      <point x="145" y="-10"/>
      <point x="331" y="-10" type="curve" smooth="yes"/>
      <point x="449" y="-10"/>
      <point x="533" y="40"/>
      <point x="549" y="121" type="curve"/>
    </contour>
  </outline>
</glyph>
<glyph name="H" format="2">
  <advance width="670"/>
  <unicode hex="0048"/>
  <anchor x="335.0" y="655" name="top"/>
  <anchor x="320.0" y="-1" name="bottom"/>
  <outline>
    <contour>
      <point x="235" y="615" type="line"/>
      <point x="65" y="615" type="line"/>
      <point x="65" y="0" type="line"/>
      <point x="235" y="0" type="line"/>
    </contour>
    <contour>
      <point x="156" y="386" type="line"/>
      <point x="156" y="242" type="line"/>
      <point x="497" y="242" type="line"/>
      <point x="497" y="386" type="line"/>
    </contour>
    <contour>
      <point x="435" y="0" type="line"/>
      <point x="605" y="0" type="line"/>
      <point x="605" y="615" type="line"/>
      <point x="435" y="615" type="line"/>
    </contour>
  </outline>
</glyph>
<glyph name="I" format="2">
  <advance width="300"/>
  <unicode hex="0049"/>
  <guideline x="55" y="0" angle="90.0" name="TRAC" identifier="yfKhTb4Pdk"/>
  <guideline x="245" y="0" angle="90.0" name="TRAC" identifier="62puik5L8N"/>
  <anchor x="151" y="655" name="top"/>
  <anchor x="163" y="-3" name="bottom"/>
  <outline>
    <contour>
      <point x="65" y="0" type="line"/>
      <point x="235" y="0" type="line"/>
      <point x="235" y="615" type="line"/>
      <point x="65" y="615" type="line"/>
    </contour>
  </outline>
</glyph>
<glyph name="J" format="2">
  <advance width="523"/>
  <unicode hex="004A"/>
  <guideline x="25" y="0" angle="90.0" name="TRAC" identifier="2qbB48vRvg"/>
  <guideline x="483" y="0" angle="90.0" name="TRAC" identifier="4idmrHlOTD"/>
  <anchor x="266.0" y="655.0" name="top"/>
  <outline>
    <contour>
      <point x="244" y="-10" type="curve" smooth="yes"/>
      <point x="396" y="-10"/>
      <point x="473" y="64"/>
      <point x="473" y="211" type="curve" smooth="yes"/>
      <point x="473" y="615" type="line"/>
      <point x="303" y="615" type="line"/>
      <point x="303" y="209" type="line" smooth="yes"/>
      <point x="303" y="150"/>
      <point x="285" y="126"/>
      <point x="243" y="126" type="curve" smooth="yes"/>
      <point x="207" y="126"/>
      <point x="188" y="155"/>
      <point x="188" y="211" type="curve"/>
      <point x="35" y="211" type="line"/>
      <point x="35" y="62"/>
      <point x="103" y="-10"/>
    </contour>
  </outline>
</glyph>
<glyph name="K" format="2">
  <advance width="638"/>
  <unicode hex="004B"/>
  <anchor x="269" y="655" name="top"/>
  <anchor x="283" y="-3" name="bottom"/>
  <outline>
    <contour>
      <point x="235" y="615" type="line"/>
      <point x="65" y="615" type="line"/>
      <point x="65" y="0" type="line"/>
      <point x="235" y="0" type="line"/>
    </contour>
    <contour>
      <point x="593" y="615" type="line"/>
      <point x="396" y="615" type="line"/>
      <point x="197" y="299" type="line"/>
      <point x="199" y="128" type="line"/>
      <point x="331" y="293" type="line"/>
      <point x="374" y="293" type="line"/>
    </contour>
    <contour>
      <point x="259" y="276" type="line"/>
      <point x="418" y="0" type="line"/>
      <point x="618" y="0" type="line"/>
      <point x="383" y="388" type="line"/>
    </contour>
  </outline>
</glyph>
<glyph name="L" format="2">
  <advance width="527"/>
  <unicode hex="004C"/>
  <anchor x="248" y="655" name="top"/>
  <anchor x="265" y="-3" name="bottom"/>
  <outline>
    <contour>
      <point x="65" y="0" type="line"/>
      <point x="482" y="0" type="line"/>
      <point x="482" y="143" type="line"/>
      <point x="166" y="143" type="line"/>
      <point x="235" y="68" type="line"/>
      <point x="235" y="615" type="line"/>
      <point x="65" y="615" type="line"/>
    </contour>
  </outline>
</glyph>
<glyph name="M" format="2">
  <advance width="830"/>
  <unicode hex="004D"/>
  <anchor x="376" y="655" name="top"/>
  <outline>
    <contour>
      <point x="65" y="0" type="line"/>
      <point x="213" y="0" type="line"/>
      <point x="213" y="527" type="line"/>
      <point x="188" y="527" type="line"/>
      <point x="343" y="0" type="line"/>
      <point x="492" y="0" type="line"/>
      <point x="630" y="527" type="line"/>
      <point x="611" y="527" type="line"/>
      <point x="611" y="0" type="line"/>
      <point x="765" y="0" type="line"/>
      <point x="765" y="615" type="line"/>
      <point x="525" y="615" type="line"/>
      <point x="391" y="68" type="line"/>
      <point x="446" y="68" type="line"/>
      <point x="295" y="615" type="line"/>
      <point x="65" y="615" type="line"/>
    </contour>
  </outline>
</glyph>
<glyph name="N" format="2">
  <advance width="685"/>
  <unicode hex="004E"/>
  <guideline x="55" y="0" angle="90.0" name="TRAC" identifier="cNz3ChHUSt"/>
  <guideline x="630" y="0" angle="90.0" name="TRAC" identifier="4Mvma39lky"/>
  <anchor x="327" y="655" name="top"/>
  <anchor x="303" y="-3" name="bottom"/>
  <outline>
    <contour>
      <point x="65" y="0" type="line"/>
      <point x="223" y="0" type="line"/>
      <point x="223" y="447" type="line"/>
      <point x="178" y="447" type="line"/>
      <point x="454" y="0" type="line"/>
      <point x="620" y="0" type="line"/>
      <point x="620" y="615" type="line"/>
      <point x="462" y="615" type="line"/>
      <point x="462" y="149" type="line"/>
      <point x="518" y="149" type="line"/>
      <point x="229" y="615" type="line"/>
      <point x="65" y="615" type="line"/>
    </contour>
  </outline>
</glyph>
<glyph name="O" format="2">
  <advance width="710"/>
  <unicode hex="004F"/>
  <anchor x="356" y="655" name="top"/>
  <anchor x="352.0" y="-40.0" name="bottom"/>
  <outline>
    <contour>
      <point x="492" y="310" type="curve" smooth="yes"/>
      <point x="492" y="185"/>
      <point x="445" y="122"/>
      <point x="352" y="122" type="curve" smooth="yes"/>
      <point x="265" y="122"/>
      <point x="217" y="189"/>
      <point x="217" y="311" type="curve" smooth="yes"/>
      <point x="217" y="432"/>
      <point x="263" y="493"/>
      <point x="356" y="493" type="curve" smooth="yes"/>
      <point x="445" y="493"/>
      <point x="492" y="429"/>
    </contour>
    <contour>
      <point x="665" y="313" type="curve" smooth="yes"/>
      <point x="665" y="516"/>
      <point x="557" y="625"/>
      <point x="356" y="625" type="curve" smooth="yes"/>
      <point x="155" y="625"/>
      <point x="45" y="512"/>
      <point x="45" y="308" type="curve" smooth="yes"/>
      <point x="45" y="107"/>
      <point x="158" y="-10"/>
      <point x="352" y="-10" type="curve" smooth="yes"/>
      <point x="552" y="-10"/>
      <point x="665" y="107"/>
    </contour>
  </outline>
</glyph>
<glyph name="P" format="2">
  <advance width="575"/>
  <unicode hex="0050"/>
  <guideline x="55" y="0" angle="90.0" name="TRAC" identifier="6BCvgINeED"/>
  <guideline x="555" y="0" angle="90.0" name="TRAC" identifier="uAcIHPojII"/>
  <anchor x="277" y="655" name="top"/>
  <outline>
    <contour>
      <point x="162" y="209" type="line"/>
      <point x="303" y="209" type="line" smooth="yes"/>
      <point x="466" y="209"/>
      <point x="545" y="277"/>
      <point x="545" y="417" type="curve" smooth="yes"/>
      <point x="545" y="545"/>
      <point x="458" y="615"/>
      <point x="298" y="615" type="curve" smooth="yes"/>
      <point x="65" y="615" type="line"/>
      <point x="65" y="0" type="line"/>
      <point x="235" y="0" type="line"/>
      <point x="235" y="544" type="line"/>
      <point x="164" y="490" type="line"/>
      <point x="284" y="490" type="line" smooth="yes"/>
      <point x="348" y="490"/>
      <point x="377" y="465"/>
      <point x="377" y="409" type="curve" smooth="yes"/>
      <point x="377" y="356"/>
      <point x="351" y="334"/>
      <point x="290" y="334" type="curve" smooth="yes"/>
      <point x="162" y="334" type="line"/>
    </contour>
  </outline>
</glyph>
<glyph name="Q" format="2">
  <advance width="710"/>
  <unicode hex="0051"/>
  <outline>
    <contour>
      <point x="418" y="51" type="line"/>
      <point x="274" y="51" type="line"/>
      <point x="274" y="-17" type="line" smooth="yes"/>
      <point x="274" y="-127"/>
      <point x="332" y="-180"/>
      <point x="452" y="-180" type="curve" smooth="yes"/>
      <point x="569" y="-180" type="line"/>
      <point x="569" y="-64" type="line"/>
      <point x="459" y="-64" type="line" smooth="yes"/>
      <point x="431" y="-64"/>
      <point x="418" y="-50"/>
      <point x="418" y="-20" type="curve" smooth="yes"/>
    </contour>
    <contour>
      <point x="492" y="310" type="curve" smooth="yes"/>
      <point x="492" y="185"/>
      <point x="445" y="122"/>
      <point x="352" y="122" type="curve" smooth="yes"/>
      <point x="265" y="122"/>
      <point x="217" y="189"/>
      <point x="217" y="311" type="curve" smooth="yes"/>
      <point x="217" y="432"/>
      <point x="263" y="493"/>
      <point x="356" y="493" type="curve" smooth="yes"/>
      <point x="445" y="493"/>
      <point x="492" y="429"/>
    </contour>
    <contour>
      <point x="665" y="313" type="curve" smooth="yes"/>
      <point x="665" y="516"/>
      <point x="557" y="625"/>
      <point x="356" y="625" type="curve" smooth="yes"/>
      <point x="155" y="625"/>
      <point x="45" y="512"/>
      <point x="45" y="308" type="curve" smooth="yes"/>
      <point x="45" y="107"/>
      <point x="158" y="-10"/>
      <point x="352" y="-10" type="curve" smooth="yes"/>
      <point x="552" y="-10"/>
      <point x="665" y="107"/>
    </contour>
  </outline>
</glyph>
<glyph name="R" format="2">
  <advance width="585"/>
  <unicode hex="0052"/>
  <anchor x="160" y="655" name="top"/>
  <anchor x="168" y="-3" name="bottom"/>
  <outline>
    <contour identifier="OLTooyHxDz">
      <point x="261" y="245" type="line"/>
      <point x="374" y="1" type="line"/>
      <point x="558" y="1" type="line"/>
      <point x="418" y="270" type="line"/>
    </contour>
    <component base="P"/>
  </outline>
</glyph>
<glyph name="S" format="2">
  <advance width="583"/>
  <unicode hex="0053"/>
  <guideline x="20" y="0" angle="90.0" name="TRAC" identifier="dncASPVmJq"/>
  <guideline x="553" y="0" angle="90.0" name="TRAC" identifier="Irmb3B6Sil"/>
  <anchor x="284" y="655" name="top"/>
  <anchor x="266" y="-3" name="bottom"/>
  <outline>
    <contour>
      <point x="543" y="183" type="curve" smooth="yes"/>
      <point x="543" y="291"/>
      <point x="498" y="334"/>
      <point x="335" y="379" type="curve" smooth="yes"/>
      <point x="239" y="406"/>
      <point x="214" y="422"/>
      <point x="214" y="458" type="curve" smooth="yes"/>
      <point x="214" y="492"/>
      <point x="240" y="513"/>
      <point x="282" y="513" type="curve" smooth="yes"/>
      <point x="337" y="513"/>
      <point x="366" y="489"/>
      <point x="366" y="444" type="curve"/>
      <point x="522" y="444" type="line"/>
      <point x="522" y="557"/>
      <point x="432" y="625"/>
      <point x="284" y="625" type="curve" smooth="yes"/>
      <point x="136" y="625"/>
      <point x="49" y="558"/>
      <point x="49" y="445" type="curve" smooth="yes"/>
      <point x="49" y="335"/>
      <point x="108" y="278"/>
      <point x="259" y="242" type="curve" smooth="yes"/>
      <point x="349" y="218"/>
      <point x="368" y="205"/>
      <point x="368" y="166" type="curve" smooth="yes"/>
      <point x="368" y="128"/>
      <point x="339" y="105"/>
      <point x="290" y="105" type="curve" smooth="yes"/>
      <point x="226" y="105"/>
      <point x="191" y="134"/>
      <point x="191" y="187" type="curve"/>
      <point x="30" y="187" type="line"/>
      <point x="30" y="64"/>
      <point x="120" y="-10"/>
      <point x="269" y="-10" type="curve" smooth="yes"/>
      <point x="446" y="-10"/>
      <point x="543" y="58"/>
    </contour>
  </outline>
</glyph>
<glyph name="T" format="2">
  <advance width="552"/>
  <unicode hex="0054"/>
  <anchor x="276.0" y="655" name="top"/>
  <anchor x="261.0" y="-3" name="bottom"/>
  <outline>
    <contour>
      <point x="191" y="531" type="line"/>
      <point x="191" y="0" type="line"/>
      <point x="361" y="0" type="line"/>
      <point x="361" y="531" type="line"/>
    </contour>
    <contour>
      <point x="527" y="481" type="line"/>
      <point x="527" y="615" type="line"/>
      <point x="25" y="615" type="line"/>
      <point x="25" y="481" type="line"/>
    </contour>
  </outline>
</glyph>
<glyph name="U" format="2">
  <advance width="662"/>
  <unicode hex="0055"/>
  <anchor x="329" y="655" name="top"/>
  <anchor x="430" y="20" name="bottom"/>
  <outline>
    <contour>
      <point x="332" y="-10" type="curve" smooth="yes"/>
      <point x="500" y="-10"/>
      <point x="597" y="75"/>
      <point x="597" y="239" type="curve" smooth="yes"/>
      <point x="597" y="615" type="line"/>
      <point x="427" y="615" type="line"/>
      <point x="427" y="248" type="line" smooth="yes"/>
      <point x="427" y="172"/>
      <point x="392" y="138"/>
      <point x="331" y="138" type="curve" smooth="yes"/>
      <point x="273" y="138"/>
      <point x="235" y="172"/>
      <point x="235" y="249" type="curve" smooth="yes"/>
      <point x="235" y="615" type="line"/>
      <point x="65" y="615" type="line"/>
      <point x="65" y="239" type="line" smooth="yes"/>
      <point x="65" y="74"/>
      <point x="177" y="-10"/>
    </contour>
  </outline>
</glyph>
<glyph name="V" format="2">
  <advance width="638"/>
  <unicode hex="0056"/>
  <guideline x="10" y="0" angle="90.0" name="TRAC" identifier="i6s3cKoFby"/>
  <guideline x="628" y="0" angle="90.0" name="TRAC" identifier="ScUYodJpoA"/>
  <anchor x="285" y="656" name="top"/>
  <outline>
    <contour>
      <point x="202" y="0" type="line"/>
      <point x="443" y="0" type="line"/>
      <point x="618" y="615" type="line"/>
      <point x="437" y="615" type="line"/>
      <point x="299" y="45" type="line"/>
      <point x="346" y="45" type="line"/>
      <point x="200" y="615" type="line"/>
      <point x="20" y="615" type="line"/>
    </contour>
  </outline>
</glyph>
<glyph name="W" format="2">
  <advance width="952"/>
  <unicode hex="0057"/>
  <guideline x="10" y="0" angle="90.0" name="TRAC" identifier="sZMC8TtkOW"/>
  <guideline x="942" y="0" angle="90.0" name="TRAC" identifier="aFtOhQa8rb"/>
  <anchor x="407" y="655" name="top"/>
  <outline>
    <contour>
      <point x="158" y="0" type="line"/>
      <point x="384" y="0" type="line"/>
      <point x="496" y="572" type="line"/>
      <point x="452" y="572" type="line"/>
      <point x="575" y="0" type="line"/>
      <point x="794" y="0" type="line"/>
      <point x="932" y="615" type="line"/>
      <point x="770" y="615" type="line"/>
      <point x="659" y="38" type="line"/>
      <point x="700" y="38" type="line"/>
      <point x="578" y="615" type="line"/>
      <point x="370" y="615" type="line"/>
      <point x="254" y="42" type="line"/>
      <point x="291" y="42" type="line"/>
      <point x="184" y="615" type="line"/>
      <point x="20" y="615" type="line"/>
    </contour>
  </outline>
</glyph>
<glyph name="X" format="2">
  <advance width="655"/>
  <unicode hex="0058"/>
  <anchor x="287" y="655" name="top"/>
  <outline>
    <contour>
      <point x="351" y="260" type="line"/>
      <point x="408" y="260" type="line"/>
      <point x="615" y="615" type="line"/>
      <point x="443" y="615" type="line"/>
      <point x="307" y="371" type="line"/>
      <point x="245" y="371" type="line"/>
      <point x="20" y="0" type="line"/>
      <point x="206" y="0" type="line"/>
    </contour>
    <contour>
      <point x="289" y="267" type="line"/>
      <point x="447" y="0" type="line"/>
      <point x="635" y="0" type="line"/>
      <point x="418" y="370" type="line"/>
      <point x="363" y="370" type="line"/>
      <point x="221" y="615" type="line"/>
      <point x="34" y="615" type="line"/>
      <point x="249" y="267" type="line"/>
    </contour>
  </outline>
</glyph>
<glyph name="Y" format="2">
  <advance width="597"/>
  <unicode hex="0059"/>
  <guideline x="5" y="0" angle="90.0" name="TRAC" identifier="mX97p97JV6"/>
  <guideline x="592" y="0" angle="90.0" name="TRAC" identifier="84oOvznhge"/>
  <anchor x="300" y="655" name="top"/>
  <outline>
    <contour>
      <point x="394" y="233" type="line"/>
      <point x="582" y="615" type="line"/>
      <point x="403" y="615" type="line"/>
      <point x="276" y="311" type="line"/>
      <point x="327" y="311" type="line"/>
      <point x="196" y="615" type="line"/>
      <point x="15" y="615" type="line"/>
      <point x="207" y="233" type="line"/>
      <point x="207" y="0" type="line"/>
      <point x="394" y="0" type="line"/>
    </contour>
  </outline>
</glyph>
<glyph name="Z" format="2">
  <advance width="574"/>
  <unicode hex="005A"/>
  <anchor x="280" y="655" name="top"/>
  <outline>
    <contour>
      <point x="45" y="0" type="line"/>
      <point x="529" y="0" type="line"/>
      <point x="529" y="123" type="line"/>
      <point x="156" y="123" type="line"/>
      <point x="194" y="43" type="line"/>
      <point x="515" y="504" type="line"/>
      <point x="515" y="615" type="line"/>
      <point x="57" y="615" type="line"/>
      <point x="57" y="490" type="line"/>
      <point x="378" y="490" type="line"/>
      <point x="366" y="577" type="line"/>
      <point x="45" y="113" type="line"/>
    </contour>
  </outline>
</glyph>
<glyph name="bracketleft" format="2">
  <advance width="370"/>
  <unicode hex="005B"/>
  <outline>
    <contour>
      <point x="63" y="-190" type="line"/>
      <point x="330" y="-190" type="line"/>
      <point x="330" y="-87" type="line"/>
      <point x="213" y="-87" type="line"/>
      <point x="213" y="573" type="line"/>
      <point x="330" y="573" type="line"/>
      <point x="330" y="675" type="line"/>
      <point x="63" y="675" type="line"/>
    </contour>
  </outline>
</glyph>
<glyph name="backslash" format="2">
  <advance width="495"/>
  <unicode hex="005C"/>
  <outline>
    <contour>
      <point x="460" y="-190" type="line"/>
      <point x="179" y="675" type="line"/>
      <point x="35" y="675" type="line"/>
      <point x="316" y="-190" type="line"/>
    </contour>
  </outline>
</glyph>
<glyph name="bracketright" format="2">
  <advance width="370"/>
  <unicode hex="005D"/>
  <outline>
    <contour>
      <point x="307" y="-190" type="line"/>
      <point x="307" y="675" type="line"/>
      <point x="40" y="675" type="line"/>
      <point x="40" y="573" type="line"/>
      <point x="157" y="573" type="line"/>
      <point x="157" y="-87" type="line"/>
      <point x="40" y="-87" type="line"/>
      <point x="40" y="-190" type="line"/>
    </contour>
  </outline>
</glyph>
<glyph name="asciicircum" format="2">
  <advance width="634"/>
  <unicode hex="005E"/>
  <outline>
    <contour>
      <point x="449" y="108" type="line"/>
      <point x="581" y="108" type="line"/>
      <point x="403" y="469" type="line"/>
      <point x="221" y="469" type="line"/>
      <point x="45" y="108" type="line"/>
      <point x="176" y="108" type="line"/>
      <point x="330" y="436" type="line"/>
      <point x="290" y="436" type="line"/>
    </contour>
  </outline>
</glyph>
<glyph name="underscore" format="2">
  <advance width="601"/>
  <unicode hex="005F"/>
  <outline>
    <contour>
      <point x="0" y="-150" type="line"/>
      <point x="601" y="-150" type="line"/>
      <point x="601" y="0" type="line"/>
      <point x="0" y="0" type="line"/>
    </contour>
  </outline>
</glyph>
<glyph name="grave" format="2">
  <advance width="404"/>
  <unicode hex="0060"/>
  <outline>
    <contour>
      <point x="205" y="521" type="line"/>
      <point x="354" y="521" type="line"/>
      <point x="354" y="522" type="line"/>
      <point x="248" y="668" type="line"/>
      <point x="50" y="668" type="line"/>
      <point x="50" y="667" type="line"/>
    </contour>
  </outline>
</glyph>
<glyph name="a" format="2">
  <advance width="543"/>
  <unicode hex="0061"/>
  <anchor x="272" y="525" name="top"/>
  <anchor x="493" y="0" name="bottom"/>
  <outline>
    <contour>
      <point x="493" y="0" type="line"/>
      <point x="493" y="305" type="line" smooth="yes"/>
      <point x="493" y="424"/>
      <point x="418" y="485"/>
      <point x="272" y="485" type="curve" smooth="yes" identifier="zESCQVoI7n"/>
      <point x="132" y="485"/>
      <point x="55" y="426"/>
      <point x="55" y="321" type="curve"/>
      <point x="206" y="321" type="line"/>
      <point x="206" y="362"/>
      <point x="225" y="382"/>
      <point x="266" y="382" type="curve" smooth="yes" identifier="8iJm4mfFNH"/>
      <point x="304" y="382"/>
      <point x="323" y="361"/>
      <point x="323" y="318" type="curve" smooth="yes"/>
      <point x="323" y="181" type="line" smooth="yes"/>
      <point x="323" y="124"/>
      <point x="300" y="95"/>
      <point x="256" y="95" type="curve" smooth="yes" identifier="WCySNLwTsP"/>
      <point x="220" y="95"/>
      <point x="198" y="117"/>
      <point x="198" y="153" type="curve" smooth="yes" identifier="faDb7A1o4j"/>
      <point x="198" y="191"/>
      <point x="227" y="213"/>
      <point x="278" y="212" type="curve" smooth="yes" identifier="8UQ1yi2yOj"/>
      <point x="366" y="212" type="line"/>
      <point x="366" y="287" type="line"/>
      <point x="262" y="287" type="line" smooth="yes" identifier="7Jbo1eM4m5"/>
      <point x="106" y="287"/>
      <point x="32" y="238"/>
      <point x="32" y="133" type="curve" smooth="yes" identifier="pru3o6alue"/>
      <point x="32" y="46"/>
      <point x="93" y="-10"/>
      <point x="187" y="-10" type="curve" smooth="yes" identifier="CC4n4PUOpg"/>
      <point x="286" y="-10"/>
      <point x="340" y="41"/>
      <point x="341" y="134" type="curve"/>
      <point x="323" y="104" type="line"/>
      <point x="339" y="0" type="line"/>
    </contour>
  </outline>
</glyph>
<glyph name="b" format="2">
  <advance width="557"/>
  <unicode hex="0062"/>
  <anchor x="288" y="732" name="top"/>
  <outline>
    <contour>
      <point x="527" y="242" type="curve" smooth="yes"/>
      <point x="527" y="405"/>
      <point x="470" y="485"/>
      <point x="353" y="485" type="curve" smooth="yes"/>
      <point x="268" y="485"/>
      <point x="214" y="441"/>
      <point x="210" y="370" type="curve"/>
      <point x="220" y="370" type="line"/>
      <point x="220" y="675" type="line"/>
      <point x="50" y="675" type="line"/>
      <point x="50" y="0" type="line"/>
      <point x="220" y="0" type="line"/>
      <point x="220" y="95" type="line"/>
      <point x="213" y="95" type="line"/>
      <point x="229" y="23"/>
      <point x="274" y="-10"/>
      <point x="354" y="-10" type="curve" smooth="yes"/>
      <point x="471" y="-10"/>
      <point x="527" y="72"/>
    </contour>
    <contour>
      <point x="355" y="242" type="curve" smooth="yes"/>
      <point x="355" y="145"/>
      <point x="336" y="105"/>
      <point x="289" y="105" type="curve" smooth="yes"/>
      <point x="240" y="105"/>
      <point x="220" y="144"/>
      <point x="220" y="239" type="curve" smooth="yes"/>
      <point x="220" y="331"/>
      <point x="241" y="369"/>
      <point x="290" y="369" type="curve" smooth="yes"/>
      <point x="336" y="369"/>
      <point x="355" y="333"/>
    </contour>
  </outline>
</glyph>
<glyph name="c" format="2">
  <advance width="520"/>
  <unicode hex="0063"/>
  <guideline x="20" y="0" angle="90.0" name="TRAC" identifier="UnjFHpgecD"/>
  <guideline x="505" y="0" angle="90.0" name="TRAC" identifier="4EvfjxQIPX"/>
  <anchor x="239" y="537" name="top"/>
  <anchor x="267" y="0" name="cedilla"/>
  <outline>
    <contour>
      <point x="269" y="-10" type="curve" smooth="yes"/>
      <point x="403" y="-10"/>
      <point x="495" y="69"/>
      <point x="495" y="183" type="curve"/>
      <point x="335" y="183" type="line"/>
      <point x="330" y="129"/>
      <point x="311" y="105"/>
      <point x="272" y="105" type="curve" smooth="yes"/>
      <point x="224" y="105"/>
      <point x="203" y="147"/>
      <point x="203" y="244" type="curve" smooth="yes"/>
      <point x="203" y="337"/>
      <point x="221" y="371"/>
      <point x="271" y="371" type="curve" smooth="yes"/>
      <point x="310" y="371"/>
      <point x="329" y="345"/>
      <point x="333" y="287" type="curve"/>
      <point x="495" y="287" type="line"/>
      <point x="495" y="410"/>
      <point x="409" y="485"/>
      <point x="269" y="485" type="curve" smooth="yes"/>
      <point x="114" y="485"/>
      <point x="30" y="399"/>
      <point x="30" y="240" type="curve" smooth="yes"/>
      <point x="30" y="81"/>
      <point x="117" y="-10"/>
    </contour>
  </outline>
</glyph>
<glyph name="d" format="2">
  <advance width="557"/>
  <unicode hex="0064"/>
  <anchor x="237" y="732" name="top"/>
  <anchor x="508" y="486" name="right"/>
  <anchor x="226" y="0" name="bottom"/>
  <outline>
    <contour>
      <point x="205" y="-10" type="curve" smooth="yes"/>
      <point x="286" y="-10"/>
      <point x="335" y="28"/>
      <point x="347" y="103" type="curve"/>
      <point x="337" y="103" type="line"/>
      <point x="337" y="0" type="line"/>
      <point x="507" y="0" type="line"/>
      <point x="507" y="675" type="line"/>
      <point x="337" y="675" type="line"/>
      <point x="337" y="373" type="line"/>
      <point x="346" y="373" type="line"/>
      <point x="345" y="437"/>
      <point x="285" y="485"/>
      <point x="207" y="485" type="curve" smooth="yes"/>
      <point x="87" y="485"/>
      <point x="30" y="407"/>
      <point x="30" y="242" type="curve" smooth="yes"/>
      <point x="30" y="71"/>
      <point x="87" y="-10"/>
    </contour>
    <contour>
      <point x="267" y="106" type="curve" smooth="yes"/>
      <point x="221" y="106"/>
      <point x="202" y="146"/>
      <point x="202" y="243" type="curve" smooth="yes"/>
      <point x="202" y="333"/>
      <point x="222" y="372"/>
      <point x="268" y="372" type="curve" smooth="yes"/>
      <point x="316" y="372"/>
      <point x="337" y="333"/>
      <point x="337" y="244" type="curve" smooth="yes"/>
      <point x="337" y="148"/>
      <point x="316" y="106"/>
    </contour>
  </outline>
</glyph>
<glyph name="e" format="2">
  <advance width="539"/>
  <unicode hex="0065"/>
  <anchor x="272" y="525" name="top"/>
  <anchor x="366" y="20" name="bottom"/>
  <outline>
    <contour>
      <point x="275" y="-10" type="curve" smooth="yes"/>
      <point x="402" y="-10"/>
      <point x="501" y="63"/>
      <point x="501" y="157" type="curve"/>
      <point x="340" y="157" type="line"/>
      <point x="340" y="118"/>
      <point x="315" y="94"/>
      <point x="274" y="94" type="curve" smooth="yes"/>
      <point x="224" y="94"/>
      <point x="202" y="125"/>
      <point x="202" y="198" type="curve" smooth="yes"/>
      <point x="202" y="289" type="line" smooth="yes"/>
      <point x="202" y="354"/>
      <point x="226" y="387"/>
      <point x="272" y="387" type="curve" smooth="yes"/>
      <point x="317" y="387"/>
      <point x="340" y="355"/>
      <point x="340" y="294" type="curve" smooth="yes"/>
      <point x="340" y="256" type="line"/>
      <point x="361" y="288" type="line"/>
      <point x="140" y="288" type="line"/>
      <point x="140" y="203" type="line"/>
      <point x="509" y="203" type="line"/>
      <point x="509" y="252" type="line" smooth="yes"/>
      <point x="509" y="400"/>
      <point x="428" y="485"/>
      <point x="272" y="485" type="curve" smooth="yes"/>
      <point x="118" y="485"/>
      <point x="30" y="395"/>
      <point x="30" y="238" type="curve" smooth="yes"/>
      <point x="30" y="78"/>
      <point x="117" y="-10"/>
    </contour>
  </outline>
</glyph>
<glyph name="f" format="2">
  <advance width="375"/>
  <unicode hex="0066"/>
  <anchor x="177.0" y="733.0" name="top"/>
  <outline>
    <contour>
      <point x="82" y="0" type="line"/>
      <point x="252" y="0" type="line"/>
      <point x="252" y="528" type="line" smooth="yes"/>
      <point x="252" y="557"/>
      <point x="261" y="565"/>
      <point x="293" y="565" type="curve" smooth="yes"/>
      <point x="355" y="565" type="line"/>
      <point x="355" y="685" type="line"/>
      <point x="226" y="685" type="line" smooth="yes"/>
      <point x="132" y="685"/>
      <point x="82" y="641"/>
      <point x="82" y="558" type="curve" smooth="yes"/>
    </contour>
    <contour>
      <point x="5" y="355" type="line"/>
      <point x="355" y="355" type="line"/>
      <point x="355" y="475" type="line"/>
      <point x="5" y="475" type="line"/>
    </contour>
  </outline>
</glyph>
<glyph name="g" format="2">
  <advance width="541"/>
  <unicode hex="0067"/>
  <anchor x="268" y="525" name="top"/>
  <outline>
    <contour>
      <point x="200" y="1" type="curve" smooth="yes"/>
      <point x="279" y="1"/>
      <point x="330" y="39"/>
      <point x="343" y="108" type="curve"/>
      <point x="336" y="108" type="line"/>
      <point x="336" y="-12" type="line" smooth="yes"/>
      <point x="336" y="-68"/>
      <point x="315" y="-92"/>
      <point x="267" y="-92" type="curve" smooth="yes"/>
      <point x="229" y="-92"/>
      <point x="207" y="-71"/>
      <point x="207" y="-33" type="curve"/>
      <point x="46" y="-33" type="line"/>
      <point x="46" y="-142"/>
      <point x="118" y="-200"/>
      <point x="255" y="-200" type="curve" smooth="yes"/>
      <point x="425" y="-200"/>
      <point x="506" y="-131"/>
      <point x="506" y="15" type="curve" smooth="yes"/>
      <point x="506" y="475" type="line"/>
      <point x="343" y="475" type="line"/>
      <point x="340" y="373" type="line"/>
      <point x="346" y="372" type="line"/>
      <point x="335" y="448"/>
      <point x="289" y="485"/>
      <point x="206" y="485" type="curve" smooth="yes"/>
      <point x="89" y="485"/>
      <point x="30" y="406"/>
      <point x="30" y="250" type="curve" smooth="yes"/>
      <point x="30" y="81"/>
      <point x="84" y="1"/>
    </contour>
    <contour>
      <point x="336" y="247" type="curve" smooth="yes"/>
      <point x="336" y="157"/>
      <point x="314" y="114"/>
      <point x="268" y="114" type="curve" smooth="yes"/>
      <point x="220" y="114"/>
      <point x="201" y="151"/>
      <point x="201" y="245" type="curve" smooth="yes"/>
      <point x="201" y="335"/>
      <point x="221" y="372"/>
      <point x="269" y="372" type="curve" smooth="yes"/>
      <point x="313" y="372"/>
      <point x="336" y="330"/>
    </contour>
  </outline>
</glyph>
<glyph name="h" format="2">
  <advance width="560"/>
  <unicode hex="0068"/>
  <anchor x="270" y="734" name="top"/>
  <anchor x="266" y="2" name="bottom"/>
  <outline>
    <contour>
      <point x="50" y="0" type="line"/>
      <point x="220" y="0" type="line"/>
      <point x="220" y="254" type="line" smooth="yes"/>
      <point x="220" y="318"/>
      <point x="246" y="357"/>
      <point x="289" y="357" type="curve" smooth="yes"/>
      <point x="327" y="357"/>
      <point x="340" y="337"/>
      <point x="340" y="280" type="curve" smooth="yes"/>
      <point x="340" y="0" type="line"/>
      <point x="510" y="0" type="line"/>
      <point x="510" y="321" type="line" smooth="yes"/>
      <point x="510" y="430"/>
      <point x="460" y="485"/>
      <point x="361" y="485" type="curve" smooth="yes"/>
      <point x="275" y="485"/>
      <point x="221" y="438"/>
      <point x="209" y="350" type="curve"/>
      <point x="221" y="350" type="line"/>
      <point x="221" y="675" type="line"/>
      <point x="50" y="675" type="line"/>
    </contour>
  </outline>
</glyph>
<glyph name="i" format="2">
  <advance width="270"/>
  <unicode hex="0069"/>
  <anchor x="146" y="2" name="bottom"/>
  <outline>
    <contour>
      <point x="50" y="0" type="line"/>
      <point x="220" y="0" type="line"/>
      <point x="220" y="475" type="line"/>
      <point x="50" y="475" type="line"/>
    </contour>
    <contour>
      <point x="50" y="529" type="line"/>
      <point x="220" y="529" type="line"/>
      <point x="220" y="675" type="line"/>
      <point x="50" y="675" type="line"/>
    </contour>
  </outline>
</glyph>
<glyph name="j" format="2">
  <advance width="270"/>
  <unicode hex="006A"/>
  <outline>
    <contour>
      <point x="71" y="-200" type="line" smooth="yes"/>
      <point x="164" y="-200"/>
      <point x="220" y="-147"/>
      <point x="220" y="-58" type="curve" smooth="yes"/>
      <point x="220" y="475" type="line"/>
      <point x="50" y="475" type="line"/>
      <point x="50" y="-34" type="line" smooth="yes"/>
      <point x="50" y="-69"/>
      <point x="39" y="-80"/>
      <point x="8" y="-80" type="curve" smooth="yes"/>
      <point x="-25" y="-80" type="line"/>
      <point x="-25" y="-200" type="line"/>
    </contour>
    <contour>
      <point x="49" y="529" type="line"/>
      <point x="221" y="529" type="line"/>
      <point x="221" y="675" type="line"/>
      <point x="49" y="675" type="line"/>
    </contour>
  </outline>
</glyph>
<glyph name="k" format="2">
  <advance width="533"/>
  <unicode hex="006B"/>
  <anchor x="234.0" y="734" name="top"/>
  <anchor x="233.0" y="2" name="bottom"/>
  <outline>
    <contour>
      <point x="520" y="475" type="line"/>
      <point x="346" y="475" type="line"/>
      <point x="181" y="216" type="line"/>
      <point x="181" y="143" type="line"/>
      <point x="283" y="230" type="line"/>
      <point x="358" y="230" type="line"/>
    </contour>
    <contour>
      <point x="220" y="675" type="line"/>
      <point x="50" y="675" type="line"/>
      <point x="50" y="0" type="line"/>
      <point x="220" y="0" type="line"/>
    </contour>
    <contour>
      <point x="344" y="0" type="line"/>
      <point x="528" y="0" type="line"/>
      <point x="351" y="317" type="line"/>
      <point x="230" y="228" type="line"/>
    </contour>
  </outline>
</glyph>
<glyph name="l" format="2">
  <advance width="270"/>
  <unicode hex="006C"/>
  <anchor x="114" y="734" name="top"/>
  <anchor x="201" y="305" name="right"/>
  <anchor x="118" y="2" name="bottom"/>
  <outline>
    <contour>
      <point x="50" y="0" type="line"/>
      <point x="220" y="0" type="line"/>
      <point x="220" y="675" type="line"/>
      <point x="50" y="675" type="line"/>
    </contour>
  </outline>
</glyph>
<glyph name="m" format="2">
  <advance width="830"/>
  <unicode hex="006D"/>
  <anchor x="390.0" y="537.0" name="top"/>
  <outline>
    <contour>
      <point x="330" y="0" type="line"/>
      <point x="500" y="0" type="line"/>
      <point x="500" y="255" type="line" smooth="yes"/>
      <point x="500" y="319"/>
      <point x="524" y="355"/>
      <point x="566" y="355" type="curve" smooth="yes"/>
      <point x="597" y="355"/>
      <point x="610" y="335"/>
      <point x="610" y="283" type="curve" smooth="yes"/>
      <point x="610" y="0" type="line"/>
      <point x="780" y="0" type="line"/>
      <point x="780" y="325" type="line" smooth="yes"/>
      <point x="780" y="435"/>
      <point x="737" y="485"/>
      <point x="641" y="485" type="curve" smooth="yes"/>
      <point x="559" y="485"/>
      <point x="495" y="428"/>
      <point x="490" y="348" type="curve"/>
      <point x="503" y="348" type="line"/>
      <point x="496" y="439"/>
      <point x="448" y="485"/>
      <point x="360" y="485" type="curve" smooth="yes"/>
      <point x="279" y="485"/>
      <point x="220" y="431"/>
      <point x="209" y="348" type="curve"/>
      <point x="220" y="348" type="line"/>
      <point x="220" y="475" type="line"/>
      <point x="50" y="475" type="line"/>
      <point x="50" y="0" type="line"/>
      <point x="220" y="0" type="line"/>
      <point x="220" y="255" type="line" smooth="yes"/>
      <point x="220" y="315"/>
      <point x="247" y="355"/>
      <point x="287" y="355" type="curve" smooth="yes"/>
      <point x="319" y="355"/>
      <point x="330" y="338"/>
      <point x="330" y="286" type="curve" smooth="yes"/>
    </contour>
  </outline>
</glyph>
<glyph name="n" format="2">
  <advance width="560"/>
  <unicode hex="006E"/>
  <guideline x="40.0" y="0" angle="90.0" name="TRAC" identifier="JJPXffaTM6"/>
  <guideline x="520.0" y="0" angle="90.0" name="TRAC" identifier="8GnZv38WbW"/>
  <anchor x="269.0" y="525" name="top"/>
  <anchor x="260.0" y="0" name="bottom"/>
  <outline>
    <contour>
      <point x="340" y="0" type="line"/>
      <point x="510" y="0" type="line"/>
      <point x="510" y="326" type="line" smooth="yes"/>
      <point x="510" y="433"/>
      <point x="461" y="485"/>
      <point x="362" y="485" type="curve" smooth="yes"/>
      <point x="276" y="485"/>
      <point x="225" y="439"/>
      <point x="210" y="348" type="curve"/>
      <point x="220" y="348" type="line"/>
      <point x="220" y="475" type="line"/>
      <point x="50" y="475" type="line"/>
      <point x="50" y="0" type="line"/>
      <point x="220" y="0" type="line"/>
      <point x="220" y="262" type="line" smooth="yes"/>
      <point x="220" y="320"/>
      <point x="246" y="355"/>
      <point x="289" y="355" type="curve" smooth="yes"/>
      <point x="327" y="355"/>
      <point x="340" y="336"/>
      <point x="340" y="282" type="curve" smooth="yes"/>
    </contour>
  </outline>
</glyph>
<glyph name="o" format="2">
  <advance width="548"/>
  <unicode hex="006F"/>
  <anchor x="273" y="525" name="top"/>
  <anchor x="415" y="383" name="right"/>
  <anchor x="357" y="16" name="bottom"/>
  <outline>
    <contour>
      <point x="345" y="245" type="curve" smooth="yes"/>
      <point x="345" y="146"/>
      <point x="325" y="105"/>
      <point x="275" y="105" type="curve" smooth="yes"/>
      <point x="226" y="105"/>
      <point x="203" y="150"/>
      <point x="203" y="246" type="curve" smooth="yes"/>
      <point x="203" y="335"/>
      <point x="224" y="373"/>
      <point x="273" y="373" type="curve" smooth="yes"/>
      <point x="323" y="373"/>
      <point x="345" y="334"/>
    </contour>
    <contour>
      <point x="518" y="240" type="curve" smooth="yes"/>
      <point x="518" y="402"/>
      <point x="435" y="485"/>
      <point x="273" y="485" type="curve" smooth="yes"/>
      <point x="116" y="485"/>
      <point x="30" y="399"/>
      <point x="30" y="241" type="curve" smooth="yes"/>
      <point x="30" y="80"/>
      <point x="117" y="-10"/>
      <point x="274" y="-10" type="curve" smooth="yes"/>
      <point x="433" y="-10"/>
      <point x="518" y="77"/>
    </contour>
  </outline>
</glyph>
<glyph name="p" format="2">
  <advance width="558"/>
  <unicode hex="0070"/>
  <anchor x="279" y="537" name="top"/>
  <outline>
    <contour>
      <point x="528" y="240" type="curve" smooth="yes"/>
      <point x="528" y="409"/>
      <point x="478" y="485"/>
      <point x="366" y="485" type="curve" smooth="yes"/>
      <point x="286" y="485"/>
      <point x="233" y="445"/>
      <point x="224" y="376" type="curve"/>
      <point x="230" y="376" type="line"/>
      <point x="230" y="475" type="line"/>
      <point x="50" y="475" type="line"/>
      <point x="50" y="-190" type="line"/>
      <point x="220" y="-190" type="line"/>
      <point x="220" y="92" type="line"/>
      <point x="213" y="92" type="line"/>
      <point x="237" y="22"/>
      <point x="283" y="-10"/>
      <point x="360" y="-10" type="curve" smooth="yes"/>
      <point x="475" y="-10"/>
      <point x="528" y="69"/>
    </contour>
    <contour>
      <point x="355" y="243" type="curve" smooth="yes"/>
      <point x="355" y="143"/>
      <point x="337" y="105"/>
      <point x="290" y="105" type="curve" smooth="yes"/>
      <point x="242" y="105"/>
      <point x="220" y="148"/>
      <point x="220" y="240" type="curve" smooth="yes"/>
      <point x="220" y="333"/>
      <point x="240" y="371"/>
      <point x="290" y="371" type="curve" smooth="yes"/>
      <point x="336" y="371"/>
      <point x="355" y="334"/>
    </contour>
  </outline>
</glyph>
<glyph name="q" format="2">
  <advance width="560"/>
  <unicode hex="0071"/>
  <guideline x="20" y="0" angle="90.0" name="TRAC" identifier="TbHL7KL4qz"/>
  <guideline x="520" y="0" angle="90.0" name="TRAC" identifier="I59IQGFsIg"/>
  <outline>
    <contour>
      <point x="202" y="-10" type="curve" smooth="yes"/>
      <point x="287" y="-10"/>
      <point x="328" y="20"/>
      <point x="343" y="94" type="curve"/>
      <point x="336" y="94" type="line"/>
      <point x="336" y="-190" type="line"/>
      <point x="510" y="-190" type="line"/>
      <point x="510" y="475" type="line"/>
      <point x="338" y="475" type="line"/>
      <point x="340" y="390" type="line"/>
      <point x="346" y="390" type="line"/>
      <point x="332" y="454"/>
      <point x="287" y="485"/>
      <point x="209" y="485" type="curve" smooth="yes"/>
      <point x="87" y="485"/>
      <point x="30" y="407"/>
      <point x="30" y="238" type="curve" smooth="yes"/>
      <point x="30" y="71"/>
      <point x="86" y="-10"/>
    </contour>
    <contour>
      <point x="269" y="105" type="curve" smooth="yes"/>
      <point x="222" y="105"/>
      <point x="203" y="144"/>
      <point x="203" y="240" type="curve" smooth="yes"/>
      <point x="203" y="332"/>
      <point x="222" y="370"/>
      <point x="269" y="370" type="curve" smooth="yes"/>
      <point x="318" y="370"/>
      <point x="338" y="333"/>
      <point x="338" y="243" type="curve" smooth="yes"/>
      <point x="338" y="147"/>
      <point x="317" y="105"/>
    </contour>
  </outline>
</glyph>
<glyph name="r" format="2">
  <advance width="382"/>
  <unicode hex="0072"/>
  <anchor x="178.0" y="537" name="top"/>
  <anchor x="166.0" y="0" name="bottom"/>
  <outline>
    <contour>
      <point x="50" y="0" type="line"/>
      <point x="220" y="0" type="line"/>
      <point x="220" y="230" type="line" smooth="yes"/>
      <point x="220" y="294"/>
      <point x="262" y="331"/>
      <point x="334" y="331" type="curve" smooth="yes"/>
      <point x="343" y="331"/>
      <point x="350" y="331"/>
      <point x="362" y="329" type="curve"/>
      <point x="362" y="485" type="line"/>
      <point x="358" y="485"/>
      <point x="353" y="485"/>
      <point x="349" y="485" type="curve" smooth="yes"/>
      <point x="255" y="485"/>
      <point x="203" y="431"/>
      <point x="202" y="331" type="curve"/>
      <point x="209" y="331" type="line"/>
      <point x="209" y="475" type="line"/>
      <point x="50" y="475" type="line"/>
    </contour>
  </outline>
</glyph>
<glyph name="s" format="2">
  <advance width="499"/>
  <unicode hex="0073"/>
  <guideline x="17" y="0" angle="90.0" name="TRAC" identifier="uVrUPYvRUA"/>
  <guideline x="465" y="0" angle="90.0" name="TRAC" identifier="bbUTxDxF1n"/>
  <anchor x="242.0" y="525.0" name="top"/>
  <anchor x="231.0" y="0" name="bottom"/>
  <outline>
    <contour>
      <point x="470" y="151" type="curve" smooth="yes"/>
      <point x="470" y="232"/>
      <point x="422" y="273"/>
      <point x="307" y="291" type="curve" smooth="yes"/>
      <point x="219" y="305"/>
      <point x="188" y="320"/>
      <point x="188" y="350" type="curve" smooth="yes"/>
      <point x="188" y="374"/>
      <point x="207" y="389"/>
      <point x="239" y="389" type="curve" smooth="yes"/>
      <point x="279" y="389"/>
      <point x="306" y="367"/>
      <point x="306" y="334" type="curve"/>
      <point x="455" y="334" type="line"/>
      <point x="455" y="425"/>
      <point x="370" y="485"/>
      <point x="242" y="485" type="curve" smooth="yes"/>
      <point x="115" y="485"/>
      <point x="33" y="427"/>
      <point x="33" y="338" type="curve" smooth="yes"/>
      <point x="33" y="254"/>
      <point x="80" y="211"/>
      <point x="193" y="191" type="curve" smooth="yes"/>
      <point x="281" y="175"/>
      <point x="304" y="163"/>
      <point x="304" y="132" type="curve" smooth="yes"/>
      <point x="304" y="102"/>
      <point x="283" y="87"/>
      <point x="244" y="87" type="curve" smooth="yes"/>
      <point x="200" y="87"/>
      <point x="176" y="110"/>
      <point x="176" y="152" type="curve"/>
      <point x="27" y="152" type="line"/>
      <point x="27" y="45"/>
      <point x="100" y="-10"/>
      <point x="240" y="-10" type="curve" smooth="yes"/>
      <point x="385" y="-10"/>
      <point x="470" y="50"/>
    </contour>
  </outline>
</glyph>
<glyph name="t" format="2">
  <advance width="385"/>
  <unicode hex="0074"/>
  <guideline x="5" y="0" angle="90.0" name="TRAC" identifier="EeylI4bZ8q"/>
  <guideline x="355" y="0" angle="90.0" name="TRAC" identifier="T9t4tZFcU3"/>
  <anchor x="111.0" y="652.0" name="top"/>
  <anchor x="212.0" y="529.0" name="right"/>
  <anchor x="145.0" y="1.0" name="bottom"/>
  <outline>
    <contour>
      <point x="227" y="0" type="curve" smooth="yes"/>
      <point x="350" y="0" type="line"/>
      <point x="350" y="140" type="line"/>
      <point x="289" y="140" type="line" smooth="yes"/>
      <point x="261" y="140"/>
      <point x="252" y="149"/>
      <point x="252" y="178" type="curve" smooth="yes"/>
      <point x="252" y="605" type="line"/>
      <point x="82" y="605" type="line"/>
      <point x="82" y="151" type="line" smooth="yes"/>
      <point x="82" y="52"/>
      <point x="132" y="0"/>
    </contour>
    <contour>
      <point x="5" y="355" type="line"/>
      <point x="355" y="355" type="line"/>
      <point x="355" y="475" type="line"/>
      <point x="5" y="475" type="line"/>
    </contour>
  </outline>
</glyph>
<glyph name="u" format="2">
  <advance width="560"/>
  <unicode hex="0075"/>
  <guideline x="40" y="0" angle="90.0" name="TRAC" identifier="xrzfoHk4LN"/>
  <guideline x="520" y="0" angle="90.0" name="TRAC" identifier="CabK40EejP"/>
  <anchor x="278" y="525" name="top"/>
  <anchor x="418" y="0" name="bottom"/>
  <outline>
    <contour>
      <point x="220" y="475" type="line"/>
      <point x="50" y="475" type="line"/>
      <point x="50" y="146" type="line" smooth="yes"/>
      <point x="50" y="47"/>
      <point x="104" y="-10"/>
      <point x="200" y="-10" type="curve" smooth="yes"/>
      <point x="287" y="-10"/>
      <point x="344" y="41"/>
      <point x="353" y="127" type="curve"/>
      <point x="340" y="127" type="line"/>
      <point x="340" y="0" type="line"/>
      <point x="510" y="0" type="line"/>
      <point x="510" y="475" type="line"/>
      <point x="340" y="475" type="line"/>
      <point x="340" y="232" type="line" smooth="yes"/>
      <point x="340" y="155"/>
      <point x="318" y="118"/>
      <point x="272" y="118" type="curve" smooth="yes"/>
      <point x="234" y="118"/>
      <point x="220" y="139"/>
      <point x="220" y="192" type="curve" smooth="yes"/>
    </contour>
  </outline>
</glyph>
<glyph name="v" format="2">
  <advance width="519"/>
  <unicode hex="0076"/>
  <anchor x="222" y="537" name="top"/>
  <outline>
    <contour>
      <point x="369" y="0" type="line"/>
      <point x="514" y="475" type="line"/>
      <point x="346" y="475" type="line"/>
      <point x="241" y="37" type="line"/>
      <point x="283" y="37" type="line"/>
      <point x="172" y="475" type="line"/>
      <point x="5" y="475" type="line"/>
      <point x="155" y="0" type="line"/>
    </contour>
  </outline>
</glyph>
<glyph name="w" format="2">
  <advance width="818"/>
  <unicode hex="0077"/>
  <guideline x="10" y="0" angle="90.0" name="TRAC" identifier="06p4lf50YQ"/>
  <guideline x="808" y="0" angle="90.0" name="TRAC" identifier="RWn58bdFEX"/>
  <anchor x="331" y="537" name="top"/>
  <outline>
    <contour>
      <point x="137" y="0" type="line"/>
      <point x="344" y="0" type="line"/>
      <point x="429" y="424" type="line"/>
      <point x="397" y="424" type="line"/>
      <point x="490" y="0" type="line"/>
      <point x="683" y="0" type="line"/>
      <point x="813" y="475" type="line"/>
      <point x="651" y="475" type="line"/>
      <point x="561" y="50" type="line"/>
      <point x="598" y="50" type="line"/>
      <point x="503" y="475" type="line"/>
      <point x="323" y="475" type="line"/>
      <point x="229" y="50" type="line"/>
      <point x="267" y="50" type="line"/>
      <point x="171" y="475" type="line"/>
      <point x="5" y="475" type="line"/>
    </contour>
  </outline>
</glyph>
<glyph name="x" format="2">
  <advance width="538"/>
  <unicode hex="0078"/>
  <guideline x="8" y="0" angle="90.0" name="TRAC" identifier="G4AglEjP85"/>
  <guideline x="515" y="0" angle="90.0" name="TRAC" identifier="44Xz2wxuwn"/>
  <anchor x="220" y="537" name="top"/>
  <outline>
    <contour>
      <point x="235" y="198" type="line"/>
      <point x="353" y="0" type="line"/>
      <point x="533" y="0" type="line"/>
      <point x="364" y="279" type="line"/>
      <point x="288" y="279" type="line"/>
      <point x="186" y="475" type="line"/>
      <point x="8" y="475" type="line"/>
      <point x="176" y="198" type="line"/>
    </contour>
    <contour>
      <point x="351" y="194" type="line"/>
      <point x="515" y="475" type="line"/>
      <point x="339" y="475" type="line"/>
      <point x="237" y="277" type="line"/>
      <point x="170" y="277" type="line"/>
      <point x="5" y="0" type="line"/>
      <point x="185" y="0" type="line"/>
      <point x="287" y="194" type="line"/>
    </contour>
  </outline>
</glyph>
<glyph name="y" format="2">
  <advance width="519"/>
  <unicode hex="0079"/>
  <anchor x="259.0" y="525" name="top"/>
  <outline>
    <contour>
      <point x="137" y="-200" type="line" smooth="yes"/>
      <point x="251" y="-200"/>
      <point x="296" y="-138"/>
      <point x="337" y="-18" type="curve" smooth="yes"/>
      <point x="504" y="475" type="line"/>
      <point x="335" y="475" type="line"/>
      <point x="237" y="91" type="line"/>
      <point x="273" y="91" type="line"/>
      <point x="175" y="475" type="line"/>
      <point x="5" y="475" type="line"/>
      <point x="189" y="-36" type="line"/>
      <point x="273" y="-36" type="line"/>
      <point x="193" y="16" type="line"/>
      <point x="174" y="-35" type="line" smooth="yes"/>
      <point x="165" y="-58"/>
      <point x="157" y="-77"/>
      <point x="122" y="-77" type="curve" smooth="yes"/>
      <point x="43" y="-77" type="line"/>
      <point x="43" y="-200" type="line"/>
    </contour>
  </outline>
</glyph>
<glyph name="z" format="2">
  <advance width="461"/>
  <unicode hex="007A"/>
  <anchor x="225.0" y="525.0" name="top"/>
  <outline>
    <contour>
      <point x="30" y="0" type="line"/>
      <point x="431" y="0" type="line"/>
      <point x="431" y="113" type="line"/>
      <point x="143" y="113" type="line"/>
      <point x="179" y="64" type="line"/>
      <point x="422" y="371" type="line"/>
      <point x="422" y="475" type="line"/>
      <point x="41" y="475" type="line"/>
      <point x="41" y="358" type="line"/>
      <point x="297" y="358" type="line"/>
      <point x="274" y="423" type="line"/>
      <point x="30" y="102" type="line"/>
    </contour>
  </outline>
</glyph>
<glyph name="braceleft" format="2">
  <advance width="457"/>
  <unicode hex="007B"/>
  <outline>
    <contour>
      <point x="417" y="-190" type="line"/>
      <point x="417" y="-86" type="line"/>
      <point x="372" y="-86" type="line" smooth="yes"/>
      <point x="332" y="-86"/>
      <point x="316" y="-70"/>
      <point x="316" y="-28" type="curve" smooth="yes"/>
      <point x="316" y="124" type="line" smooth="yes"/>
      <point x="316" y="210"/>
      <point x="259" y="252"/>
      <point x="142" y="252" type="curve"/>
      <point x="142" y="215" type="line"/>
      <point x="265" y="227"/>
      <point x="316" y="265"/>
      <point x="316" y="347" type="curve" smooth="yes"/>
      <point x="316" y="515" type="line" smooth="yes"/>
      <point x="316" y="557"/>
      <point x="333" y="573"/>
      <point x="374" y="573" type="curve" smooth="yes"/>
      <point x="417" y="573" type="line"/>
      <point x="417" y="675" type="line"/>
      <point x="296" y="675" type="line" smooth="yes"/>
      <point x="212" y="675"/>
      <point x="167" y="627"/>
      <point x="167" y="538" type="curve" smooth="yes"/>
      <point x="167" y="395" type="line" smooth="yes"/>
      <point x="167" y="323"/>
      <point x="134" y="290"/>
      <point x="60" y="288" type="curve"/>
      <point x="60" y="182" type="line"/>
      <point x="131" y="182"/>
      <point x="167" y="149"/>
      <point x="167" y="84" type="curve" smooth="yes"/>
      <point x="167" y="-61" type="line" smooth="yes"/>
      <point x="167" y="-144"/>
      <point x="212" y="-190"/>
      <point x="293" y="-190" type="curve" smooth="yes"/>
    </contour>
  </outline>
</glyph>
<glyph name="bar" format="2">
  <advance width="460"/>
  <unicode hex="007C"/>
  <outline>
    <contour>
      <point x="160" y="-190" type="line"/>
      <point x="300" y="-190" type="line"/>
      <point x="300" y="675" type="line"/>
      <point x="160" y="675" type="line"/>
    </contour>
  </outline>
</glyph>
<glyph name="braceright" format="2">
  <advance width="457"/>
  <unicode hex="007D"/>
  <outline>
    <contour>
      <point x="40" y="-190" type="line"/>
      <point x="164" y="-190" type="line" smooth="yes"/>
      <point x="245" y="-190"/>
      <point x="290" y="-144"/>
      <point x="290" y="-61" type="curve" smooth="yes"/>
      <point x="290" y="84" type="line" smooth="yes"/>
      <point x="290" y="149"/>
      <point x="326" y="182"/>
      <point x="397" y="182" type="curve"/>
      <point x="397" y="288" type="line"/>
      <point x="323" y="290"/>
      <point x="290" y="323"/>
      <point x="290" y="395" type="curve" smooth="yes"/>
      <point x="290" y="538" type="line" smooth="yes"/>
      <point x="290" y="627"/>
      <point x="245" y="675"/>
      <point x="161" y="675" type="curve" smooth="yes"/>
      <point x="40" y="675" type="line"/>
      <point x="40" y="573" type="line"/>
      <point x="83" y="573" type="line" smooth="yes"/>
      <point x="125" y="573"/>
      <point x="141" y="557"/>
      <point x="141" y="515" type="curve" smooth="yes"/>
      <point x="141" y="347" type="line" smooth="yes"/>
      <point x="141" y="265"/>
      <point x="192" y="227"/>
      <point x="315" y="215" type="curve"/>
      <point x="315" y="252" type="line"/>
      <point x="198" y="252"/>
      <point x="141" y="210"/>
      <point x="141" y="124" type="curve" smooth="yes"/>
      <point x="141" y="-28" type="line" smooth="yes"/>
      <point x="141" y="-70"/>
      <point x="125" y="-86"/>
      <point x="85" y="-86" type="curve" smooth="yes"/>
      <point x="40" y="-86" type="line"/>
    </contour>
  </outline>
</glyph>
<glyph name="asciitilde" format="2">
  <advance width="534"/>
  <unicode hex="007E"/>
  <outline>
    <contour>
      <point x="382" y="218" type="curve" smooth="yes"/>
      <point x="432" y="218"/>
      <point x="462" y="228"/>
      <point x="501" y="253" type="curve"/>
      <point x="501" y="369" type="line"/>
      <point x="472" y="347"/>
      <point x="432" y="329"/>
      <point x="391" y="329" type="curve" smooth="yes"/>
      <point x="320" y="329"/>
      <point x="244" y="381"/>
      <point x="158" y="381" type="curve" smooth="yes"/>
      <point x="106" y="381"/>
      <point x="66" y="366"/>
      <point x="36" y="344" type="curve"/>
      <point x="36" y="230" type="line"/>
      <point x="71" y="254"/>
      <point x="104" y="270"/>
      <point x="150" y="270" type="curve" smooth="yes"/>
      <point x="212" y="270"/>
      <point x="296" y="218"/>
    </contour>
  </outline>
</glyph>
<glyph name="eight" format="2">
  <advance width="572"/>
  <outline>
    <contour>
      <point x="527" y="173" type="curve" smooth="yes"/>
      <point x="527" y="266"/>
      <point x="478" y="324"/>
      <point x="402" y="332" type="curve"/>
      <point x="402" y="306" type="line"/>
      <point x="467" y="317"/>
      <point x="511" y="384"/>
      <point x="511" y="449" type="curve" smooth="yes"/>
      <point x="511" y="556"/>
      <point x="436" y="625"/>
      <point x="283" y="625" type="curve" smooth="yes"/>
      <point x="135" y="625"/>
      <point x="57" y="557"/>
      <point x="57" y="454" type="curve" smooth="yes"/>
      <point x="57" y="381"/>
      <point x="98" y="320"/>
      <point x="167" y="305" type="curve"/>
      <point x="167" y="331" type="line"/>
      <point x="98" y="320"/>
      <point x="45" y="267"/>
      <point x="45" y="167" type="curve" smooth="yes"/>
      <point x="45" y="75"/>
      <point x="107" y="-10"/>
      <point x="285" y="-10" type="curve" smooth="yes"/>
      <point x="455" y="-10"/>
      <point x="527" y="67"/>
    </contour>
    <contour>
      <point x="353" y="176" type="curve" smooth="yes"/>
      <point x="353" y="135"/>
      <point x="333" y="104"/>
      <point x="286" y="104" type="curve" smooth="yes"/>
      <point x="236" y="104"/>
      <point x="214" y="137"/>
      <point x="214" y="175" type="curve" smooth="yes"/>
      <point x="214" y="219"/>
      <point x="232" y="251"/>
      <point x="283" y="251" type="curve" smooth="yes"/>
      <point x="337" y="251"/>
      <point x="353" y="215"/>
    </contour>
    <contour>
      <point x="343" y="443" type="curve" smooth="yes"/>
      <point x="343" y="416"/>
      <point x="333" y="376"/>
      <point x="283" y="376" type="curve" smooth="yes"/>
      <point x="237" y="376"/>
      <point x="223" y="414"/>
      <point x="223" y="443" type="curve" smooth="yes"/>
      <point x="223" y="479"/>
      <point x="240" y="509"/>
      <point x="283" y="509" type="curve" smooth="yes"/>
      <point x="328" y="509"/>
      <point x="343" y="479"/>
    </contour>
  </outline>
</glyph>
<glyph name="five" format="2">
  <advance width="561"/>
  <guideline x="35" y="0" angle="90.0" name="TRAC"/>
  <guideline x="531" y="0" angle="90.0" name="TRAC"/>
  <outline>
    <contour>
      <point x="521" y="208" type="curve"/>
      <point x="521" y="324"/>
      <point x="448" y="395"/>
      <point x="329" y="395" type="curve" smooth="yes"/>
      <point x="249" y="395"/>
      <point x="196" y="365"/>
      <point x="178" y="310" type="curve"/>
      <point x="205" y="309" type="line"/>
      <point x="224" y="547" type="line"/>
      <point x="154" y="465" type="line"/>
      <point x="481" y="465" type="line"/>
      <point x="481" y="615" type="line"/>
      <point x="88" y="615" type="line"/>
      <point x="59" y="254" type="line"/>
      <point x="213" y="238" type="line"/>
      <point x="225" y="262"/>
      <point x="249" y="276"/>
      <point x="278" y="276" type="curve" smooth="yes"/>
      <point x="321" y="276"/>
      <point x="348" y="244"/>
      <point x="348" y="193" type="curve" smooth="yes"/>
      <point x="348" y="133"/>
      <point x="323" y="102"/>
      <point x="275" y="102" type="curve" smooth="yes"/>
      <point x="230" y="102"/>
      <point x="203" y="133"/>
      <point x="203" y="184" type="curve"/>
      <point x="45" y="184" type="line"/>
      <point x="45" y="55"/>
      <point x="122" y="-10"/>
      <point x="276" y="-10" type="curve" smooth="yes"/>
      <point x="433" y="-10"/>
      <point x="521" y="68"/>
    </contour>
  </outline>
</glyph>
<glyph name="four" format="2">
  <advance width="564"/>
  <guideline x="25" y="0" angle="90.0" name="TRAC" identifier="9IrEHUCfbB"/>
  <guideline x="539" y="0" angle="90.0" name="TRAC" identifier="Tnr5Hu34aV"/>
  <outline>
    <contour>
      <point x="529" y="140" type="line"/>
      <point x="529" y="261" type="line"/>
      <point x="116" y="261" type="line"/>
      <point x="148" y="218" type="line"/>
      <point x="327" y="486" type="line"/>
      <point x="305" y="514" type="line"/>
      <point x="305" y="0" type="line"/>
      <point x="470" y="0" type="line"/>
      <point x="470" y="615" type="line"/>
      <point x="269" y="615" type="line"/>
      <point x="35" y="263" type="line"/>
      <point x="35" y="140" type="line"/>
    </contour>
  </outline>
</glyph>
<glyph name="nine" format="2">
  <advance width="546"/>
  <outline>
    <contour>
      <point x="35" y="409" type="curve" smooth="yes"/>
      <point x="35" y="290"/>
      <point x="102" y="222"/>
      <point x="219" y="222" type="curve" smooth="yes"/>
      <point x="307" y="222"/>
      <point x="361" y="273"/>
      <point x="361" y="355" type="curve"/>
      <point x="344" y="355" type="line"/>
      <point x="344" y="295" type="line" smooth="yes"/>
      <point x="344" y="164"/>
      <point x="320" y="109"/>
      <point x="263" y="109" type="curve" smooth="yes"/>
      <point x="231" y="109"/>
      <point x="211" y="129"/>
      <point x="211" y="161" type="curve"/>
      <point x="51" y="161" type="line"/>
      <point x="51" y="52"/>
      <point x="127" y="-10"/>
      <point x="260" y="-10" type="curve" smooth="yes"/>
      <point x="429" y="-10"/>
      <point x="511" y="100"/>
      <point x="511" y="326" type="curve" smooth="yes"/>
      <point x="511" y="523"/>
      <point x="428" y="625"/>
      <point x="268" y="625" type="curve" smooth="yes"/>
      <point x="121" y="625"/>
      <point x="35" y="545"/>
    </contour>
    <contour>
      <point x="207" y="423" type="curve" smooth="yes"/>
      <point x="207" y="476"/>
      <point x="230" y="506"/>
      <point x="269" y="506" type="curve" smooth="yes"/>
      <point x="310" y="506"/>
      <point x="333" y="476"/>
      <point x="333" y="425" type="curve" smooth="yes"/>
      <point x="333" y="373"/>
      <point x="310" y="342"/>
      <point x="271" y="342" type="curve" smooth="yes"/>
      <point x="230" y="342"/>
      <point x="207" y="372"/>
    </contour>
  </outline>
</glyph>
<glyph name="one" format="2">
  <advance width="439"/>
  <outline>
    <contour>
      <point x="169" y="0" type="line"/>
      <point x="339" y="0" type="line"/>
      <point x="339" y="615" type="line"/>
      <point x="197" y="615" type="line"/>
      <point x="45" y="523" type="line"/>
      <point x="45" y="380" type="line"/>
      <point x="214" y="488" type="line"/>
      <point x="169" y="527" type="line"/>
    </contour>
  </outline>
</glyph>
<glyph name="seven" format="2">
  <advance width="501"/>
  <outline>
    <contour>
      <point x="466" y="494" type="curve"/>
      <point x="466" y="615" type="line"/>
      <point x="35" y="615" type="line"/>
      <point x="35" y="465" type="line"/>
      <point x="381" y="465" type="line"/>
      <point x="359" y="528" type="line"/>
      <point x="206" y="395"/>
      <point x="107" y="204"/>
      <point x="108" y="0" type="curve"/>
      <point x="275" y="0" type="line"/>
      <point x="275" y="221"/>
      <point x="332" y="333"/>
    </contour>
  </outline>
</glyph>
<glyph name="six" format="2">
  <advance width="546"/>
  <outline>
    <contour>
      <point x="511" y="206" type="curve" smooth="yes"/>
      <point x="511" y="325"/>
      <point x="444" y="393"/>
      <point x="327" y="393" type="curve" smooth="yes"/>
      <point x="239" y="393"/>
      <point x="185" y="342"/>
      <point x="185" y="260" type="curve"/>
      <point x="202" y="260" type="line"/>
      <point x="202" y="320" type="line" smooth="yes"/>
      <point x="202" y="451"/>
      <point x="226" y="506"/>
      <point x="283" y="506" type="curve" smooth="yes"/>
      <point x="315" y="506"/>
      <point x="335" y="486"/>
      <point x="335" y="454" type="curve"/>
      <point x="495" y="454" type="line"/>
      <point x="495" y="563"/>
      <point x="419" y="625"/>
      <point x="286" y="625" type="curve" smooth="yes"/>
      <point x="117" y="625"/>
      <point x="35" y="515"/>
      <point x="35" y="289" type="curve" smooth="yes"/>
      <point x="35" y="92"/>
      <point x="118" y="-10"/>
      <point x="278" y="-10" type="curve" smooth="yes"/>
      <point x="425" y="-10"/>
      <point x="511" y="70"/>
    </contour>
    <contour>
      <point x="339" y="192" type="curve" smooth="yes"/>
      <point x="339" y="139"/>
      <point x="316" y="109"/>
      <point x="277" y="109" type="curve" smooth="yes"/>
      <point x="236" y="109"/>
      <point x="213" y="139"/>
      <point x="213" y="190" type="curve" smooth="yes"/>
      <point x="213" y="242"/>
      <point x="236" y="273"/>
      <point x="275" y="273" type="curve" smooth="yes"/>
      <point x="316" y="273"/>
      <point x="339" y="243"/>
    </contour>
  </outline>
</glyph>
<glyph name="three" format="2">
  <advance width="562"/>
  <outline>
    <contour>
      <point x="517" y="179" type="curve" smooth="yes"/>
      <point x="517" y="265"/>
      <point x="458" y="332"/>
      <point x="384" y="332" type="curve"/>
      <point x="384" y="313" type="line"/>
      <point x="443" y="313"/>
      <point x="496" y="384"/>
      <point x="496" y="463" type="curve" smooth="yes"/>
      <point x="496" y="563"/>
      <point x="415" y="625"/>
      <point x="282" y="625" type="curve" smooth="yes"/>
      <point x="141" y="625"/>
      <point x="53" y="553"/>
      <point x="53" y="438" type="curve"/>
      <point x="204" y="438" type="line"/>
      <point x="204" y="480"/>
      <point x="230" y="507"/>
      <point x="271" y="507" type="curve" smooth="yes"/>
      <point x="310" y="507"/>
      <point x="335" y="482"/>
      <point x="335" y="441" type="curve" smooth="yes"/>
      <point x="335" y="394"/>
      <point x="305" y="369"/>
      <point x="249" y="369" type="curve" smooth="yes"/>
      <point x="189" y="369" type="line"/>
      <point x="189" y="251" type="line"/>
      <point x="261" y="251" type="line" smooth="yes"/>
      <point x="310" y="251"/>
      <point x="343" y="220"/>
      <point x="343" y="172" type="curve" smooth="yes"/>
      <point x="343" y="129"/>
      <point x="316" y="102"/>
      <point x="271" y="102" type="curve" smooth="yes"/>
      <point x="223" y="102"/>
      <point x="198" y="130"/>
      <point x="198" y="184" type="curve"/>
      <point x="40" y="184" type="line"/>
      <point x="40" y="56"/>
      <point x="118" y="-10"/>
      <point x="269" y="-10" type="curve" smooth="yes"/>
      <point x="424" y="-10"/>
      <point x="517" y="61"/>
    </contour>
  </outline>
</glyph>
<glyph name="two" format="2">
  <advance width="550"/>
  <outline>
    <contour>
      <point x="40" y="0" type="line"/>
      <point x="505" y="0" type="line"/>
      <point x="505" y="121" type="line"/>
      <point x="145" y="121" type="line"/>
      <point x="181" y="65" type="line"/>
      <point x="317" y="177" type="line" smooth="yes"/>
      <point x="446" y="284"/>
      <point x="495" y="347"/>
      <point x="495" y="442" type="curve" smooth="yes"/>
      <point x="495" y="560"/>
      <point x="411" y="625"/>
      <point x="277" y="625" type="curve" smooth="yes"/>
      <point x="125" y="625"/>
      <point x="40" y="543"/>
      <point x="40" y="413" type="curve"/>
      <point x="191" y="413" type="line"/>
      <point x="191" y="463"/>
      <point x="217" y="493"/>
      <point x="260" y="493" type="curve" smooth="yes"/>
      <point x="302" y="493"/>
      <point x="325" y="469"/>
      <point x="325" y="425" type="curve" smooth="yes"/>
      <point x="325" y="375"/>
      <point x="298" y="339"/>
      <point x="185" y="244" type="curve" smooth="yes"/>
      <point x="40" y="121" type="line"/>
    </contour>
  </outline>
</glyph>
<glyph name="zero" format="2">
  <advance width="596"/>
  <guideline x="25" y="0" angle="90.0" name="TRAC" identifier="QJzNDwXETV"/>
  <guideline x="571" y="0" angle="90.0" name="TRAC" identifier="NRESFABF3w"/>
  <outline>
    <contour>
      <point x="379" y="306" type="curve" smooth="yes"/>
      <point x="379" y="172"/>
      <point x="351" y="120"/>
      <point x="296" y="120" type="curve" smooth="yes"/>
      <point x="244" y="120"/>
      <point x="217" y="172"/>
      <point x="217" y="308" type="curve" smooth="yes"/>
      <point x="217" y="451"/>
      <point x="248" y="490"/>
      <point x="299" y="490" type="curve" smooth="yes"/>
      <point x="346" y="490"/>
      <point x="379" y="456"/>
    </contour>
    <contour>
      <point x="561" y="311" type="curve" smooth="yes"/>
      <point x="561" y="548"/>
      <point x="443" y="625"/>
      <point x="296" y="625" type="curve" smooth="yes"/>
      <point x="151" y="625"/>
      <point x="35" y="548"/>
      <point x="35" y="309" type="curve" smooth="yes"/>
      <point x="35" y="84"/>
      <point x="141" y="-10"/>
      <point x="295" y="-10" type="curve" smooth="yes"/>
      <point x="455" y="-10"/>
      <point x="561" y="82"/>
    </contour>
  </outline>
</glyph>
